<?xml version="1.0" standalone="no"?>
<!DOCTYPE svg PUBLIC "-//W3C//DTD SVG 1.1//EN" "http://www.w3.org/Graphics/SVG/1.1/DTD/svg11.dtd" >
<!--
2013-9-30: Created.
-->
<svg>
<metadata>
Created by iconfont
</metadata>
<defs>

<font id="iconfont" horiz-adv-x="1024" >
  <font-face
    font-family="iconfont"
    font-weight="500"
    font-stretch="normal"
    units-per-em="1024"
    ascent="896"
    descent="-128"
  />
    <missing-glyph />
    
    <glyph glyph-name="youzhi" unicode="&#58901;" d="M742.40491704 90.98851466999997l-460.32272994 1e-8c-50.46503367 0-91.38256569 40.91582604-91.3825657 91.37874455l0 413.93210289c0 50.46291851 40.91760068 91.37874456 91.3825657 91.37874456l460.32272994 0c50.46503367 0 88.65476702-40.91582604 88.65476701-91.37874456l0-413.93210289C831.05968405 131.90440867999996 792.86995071 90.98851466999997 742.40491704 90.98851466999997L742.40491704 90.98851466999997zM361.18950244 602.43678504c-21.82273401-74.33044345-38.87171682-148.66095553-85.2449835-213.44437582 4.091767-15.00248524 0-42.96164124 0-42.96164123s32.73406667 24.54950908 42.96348382 42.96164123l0-213.4443958 42.28149502 0 0 298.68576809c18.4128825 36.82426432 35.46186603 87.96909768 49.10106603 126.83917716L361.18950244 602.43678504zM603.28518499 594.93550843l-28.64229967-25.91340876c25.91443234-21.82177838 51.82893335-40.91582604 68.87791619-60.00994236 9.547433 10.91092351 12.27530032 40.23391052 17.04898283 47.73518714C644.88470117 571.06791486 603.28518499 594.93550843 603.28518499 594.93550843L603.28518499 594.93550843zM702.85128468 279.88338072c-12.27530032 3.40964623-30.68818353 19.77603183-42.28149966 19.77603182-1.36389968-30.6868867 0-81.14980519 0-81.1498052l-47.73717168 0c-29.32428383 0-38.87171682 23.86759357-38.18973334 42.27972572l0 171.16467542 128.20840467 0 1e-8 42.2797204-170.48989971 0c2.04588316 32.05078637 0 79.10399001 0 128.20300818l-42.9634545 0c0-15.68440146 1.36389968-105.69931429 0-128.20300818l-85.24495019 0 0-42.2797204 85.24495019 0c0 0-6.81956567-137.0681165-87.97278285-213.44437581 3.40978284-2.72773072 2.72786732-42.96164124 2.72786731-42.96164124s50.46503367 21.13986286 83.19910036 87.28718214c31.37016698 62.05568891 45.00936698 169.11890287 45.00936697 169.11890288l0-171.16467542c0-38.87007948 13.6392-85.24136695 53.19283304-85.24136694l75.01555568 0c38.87171682 0 42.96348383 16.36631696 42.28149967 42.96164123C702.85128468 234.19400811000003 702.16930053 249.19649404999996 702.85128468 279.88338072z"  horiz-adv-x="1024" />

    
    <glyph glyph-name="zanting" unicode="&#58897;" d="M521.3315839 777.8563742700001c-215.01222954 0-389.31620143-174.30652685-389.31620142-389.3187564 0-85.72418633 27.70859563-164.97664626 74.65607787-229.29192902l29.40253743 30.61273919c-39.29536201 56.31228068-62.34795971 124.80237629-62.34795971 198.67918983 0 191.97496162 155.62802925 347.60554583 347.60299087 347.60554584 191.96985169 0 347.59788094-155.63058422 347.59788093-347.60554584 0-191.97240665-155.62717759-347.59532597-347.59788093-347.59532596-73.18186305 0-141.07835513 22.617402-197.08914993 61.23995654l-26.26333708-32.54344111c63.22771934-44.36441259 140.24799149-70.41057765 223.35333867-70.41057765 215.01222954 0 389.31620143 174.30141692 389.31620141 389.31023984-0.00085166 215.01222954-174.30482354 389.31960804-389.31705307 389.31960804zM590.84877546 583.1969960700001v-389.31875639h41.71235891v389.31875639h-41.71235891zM410.1028851 583.1969960700001v-389.31875639h41.71235891v389.31875639h-41.71235891z"  horiz-adv-x="1048" />

    
    <glyph glyph-name="likefill" unicode="&#58960;" d="M736 768c-65.952 0-128.576-25.024-176.384-70.464-4.576-4.32-28.672-28.736-47.328-47.68l-47.328 47.104c-47.84 45.824-110.688 71.040-176.96 71.040-141.152 0-256-114.848-256-256 0-82.432 41.184-144.288 76.48-182.496l316.896-320.128c25.088-25.056 52.928-41.376 86.624-41.376s61.568 16.32 86.752 41.504l318.944 322.464c38.208 47.648 74.304 92.64 74.304 180.032 0 141.152-114.848 256-256 256z"  horiz-adv-x="1024" />

    
    <glyph glyph-name="like" unicode="&#58953;" d="M512-32c-28.928 0-57.92 12.672-86.624 41.376l-319.104 322.624c-38.208 47.648-74.272 92.672-74.272 180 0 141.152 114.848 256 256 256 53.088 0 104-16.096 147.296-46.592 14.432-10.176 17.92-30.144 7.712-44.608-10.176-14.432-30.080-17.92-44.608-7.712-32.384 22.848-70.592 34.912-110.4 34.912-105.888 0-192-86.112-192-192 0-61.408 20.288-90.112 59.168-138.688l315.584-318.816c15.968-15.968 28.864-22.304 41.248-22.496 12.704-0.192 24.928 6.176 41.376 22.624l316.672 319.904c26.016 28.192 57.952 75.776 57.952 137.472 0 105.888-86.112 192-192 192-48.064 0-94.080-17.856-129.536-50.272l-134.080-134.112c-12.512-12.512-32.736-12.512-45.248 0s-12.512 32.736 0 45.248l135.104 135.136c48.32 44.192 109.664 68 173.76 68 141.152 0 256-114.848 256-256 0-82.368-41.152-144.288-75.68-181.696l-317.568-320.8c-28.8-28.832-57.792-41.504-86.752-41.504z"  horiz-adv-x="1024" />

    
    <glyph glyph-name="find" unicode="&#59006;" d="M543.5 604.5c0 52.101-42.399 94.5-94.5 94.5s-94.5-42.399-94.5-94.5 42.399-94.5 94.5-94.5S543.5 552.399 543.5 604.5zM417.5 604.5c0 17.3565 14.1435 31.5 31.5 31.5s31.5-14.1435 31.5-31.5-14.1435-31.5-31.5-31.5S417.5 587.1435 417.5 604.5zM307.25 447C263.84299999999996 447 228.5 411.657 228.5 368.25 228.5 324.8114999999999 263.84299999999996 289.5 307.25 289.5s78.75 35.3115 78.75 78.75C386 411.657 350.65700000000004 447 307.25 447zM307.25 352.5C298.55600000000004 352.5 291.5 359.55600000000004 291.5 368.25S298.55600000000004 384 307.25 384s15.75-7.056 15.75-15.75S315.94399999999996 352.5 307.25 352.5zM638 163.5m-63 0a1.96875 1.96875 0 1 1 126 0 1.96875 1.96875 0 1 1-126 0ZM881.9675 623.526c39.123 59.724 63.252 111.4155 63.2205 146.63250000000002 0 22.616999999999997-9.1665 36.351-16.852500000000003 43.8795-37.485 36.791999999999994-108.29700000000001 3.1500000000000004-158.256-25.263-15.0885-8.5995-20.3805-27.846-11.781-42.966 8.5995-15.12 27.8775-20.3805 42.966-11.781 48.636 27.72 72.10350000000001 32.571 81.207 33.1695-1.4805-40.729499999999994-93.8385-199.26899999999998-325.04850000000005-426.7305-222.831-219.24-392.427-319.59900000000005-435.33-320.292 0.945 11.1825 8.631 43.7535 57.6135 116.8335 1.2915 1.8584999999999998 2.3625 3.906 3.1815 6.048l2.268 5.8275c0.252 0.63 0.2835 1.3230000000000002 0.504 1.9845 8.662500000000001 10.08 10.647 24.696 3.339 36.666C153.02599999999995 246.56550000000004 134 314.51099999999997 134 384 134 592.4355 303.56449999999995 762 512 762c58.3695 0 114.28200000000001-12.915 166.2255-38.43 15.687-7.6545 34.4925-1.1655 42.147000000000006 14.427000000000001 7.6545 15.5925 1.2285 34.461000000000006-14.3955 42.147000000000006C645.308 809.9115 580.04 825 512 825 268.82 825 71 627.1800000000001 71 384c0-74.87549999999999 19.1835-148.14450000000002 55.188-213.255-0.189-0.567-0.63-1.0395-0.7875000000000001-1.6064999999999998C58.36849999999998 68.40150000000006 42.64999999999998 6.315000000000055 75.851-26.256000000000085c10.835999999999999-10.6155 25.2315-15.3405 42.399-15.3405 38.7135 0 91.41300000000001 24.5385 147.735 59.9445C338.84450000000004-30.823499999999967 423.359-57 512-57c243.17999999999998 0 441 197.82000000000002 441 441C953 469.7745 928.3040000000001 552.0840000000001 881.9675 623.526zM512 6c-67.221 0-131.63850000000002 17.608500000000003-188.8425 50.7465 126.2835 90.8145 254.394 215.145 278.4285 238.833 87.759 86.3415 175.77 184.11749999999998 240.8175 271.656C873.4625000000001 511.386 890 448.8585 890 384 890 175.56449999999995 720.4355 6 512 6z"  horiz-adv-x="1024" />

    
    <glyph glyph-name="home" unicode="&#58945;" d="M950.6 484.74l-380.22 300.51c-32.73 25.92-84.090 25.89-116.79 0l-380.19-300.51c-12.99-10.29-15.21-29.16-4.95-42.15s28.71-15.21 41.7-4.95l11.85 9.72v-363.36c0-51.51 54.27-90 102-90h600c47.16 0 78 36.18 78 90v361.95l10.95-8.31c5.52-4.35 12.3-6.45 18.81-6.45 8.85 0 17.73 3.9 23.64 11.4 10.29 12.99 8.22 31.86-4.8 42.15zM482 54v166.32c0 8.28 15 12.42 30 12.42s30-4.14 30-12.42v-166.32h-60zM842 84c0-19.89-5.49-30-18-30h-221.4c0 0.45-0.6 0.81-0.6 1.26v165.060c0 34.89-28.14 72.45-90 72.45s-90-37.56-90-72.45v-165.060c0-0.45 0.81-0.81 0.81-1.26h-198.81c-18.81 0-42 16.26-42 30v410.79l308.37 243.39c11.070 8.76 31.050 8.76 42.15 0l309.48-244.8v-409.38z"  horiz-adv-x="1024" />

    
    <glyph glyph-name="findfill" unicode="&#59066;" d="M922.2560000000001 802.1310000000001c-0.0315 7.3395-1.197 13.482-2.8034999999999997 19.026-30.8385 8.1585-71.001-1.2285-104.958-17.703000000000003-6.9615-3.3705-23.4675-13.419-47.9115-28.287-10.1115-6.174-19.026-11.592-22.9635-13.8285-0.378-0.2205-0.5985-0.63-0.945-0.8505C675.9575 801.123 597.932 825 514.2365000000001 825c-243.17999999999998 0-441-197.82000000000002-441-441 0-81.522 22.616999999999997-157.68900000000002 61.3305-223.2405-45.738-70.497-68.418-121.401-62.496-155.8935 1.2285-7.056 13.3875-8.19 20.0655-8.19 136.26899999999998 0 447.741 299.0295 486.48600000000005 337.1445C749.7305 502.125 922.3505 707.883 922.2560000000001 802.1310000000001zM309.4865 286.85400000000004c-43.407 0-78.75 35.3115-78.75 78.75 0 43.407 35.343 78.75 78.75 78.75s78.75-35.343 78.75-78.75C388.2365 322.16549999999995 352.8935 286.85400000000004 309.4865 286.85400000000004zM448.0865 507.35400000000004c-52.101 0-94.5 42.399-94.5 94.5s42.399 94.5 94.5 94.5 94.5-42.399 94.5-94.5S500.1875 507.35400000000004 448.0865 507.35400000000004zM889.9055000000001 613.7925c-66.0555-98.091-169.911-215.8695-273.5145-317.7405-28.1925-27.7515-199.11149999999998-193.3785-342.657-281.6415 0.126 0.0945 0.2205 0.1575 0.3465 0.2205C343.2545-30.508499999999913 425.6585-57 514.2365000000001-57c243.17999999999998 0 441 197.82000000000002 441 441C955.2049999999999 468.26250000000005 931.076 546.7605 889.9055000000001 613.7925zM638.0315 100.5c-34.7445 0-63 28.2555-63 63s28.2555 63 63 63 63-28.2555 63-63S672.776 100.5 638.0315 100.5z"  horiz-adv-x="1024" />

    
    <glyph glyph-name="homefill" unicode="&#58946;" d="M952.64 484.8l-383.13 300.45c-32.76 25.92-84.090 25.89-116.79 0l-380.22-300.51c-12.99-10.29-15.21-29.16-4.95-42.15s29.16-15.21 42.15-4.95l12.3 9.72v-363.36c0-51.51 53.37-90 101.13-90h600c47.16 0 78.87 36.18 78.87 90v364.26l13.59-10.65c5.52-4.32 12-6.39 18.48-6.39 8.91 0 17.73 3.93 23.64 11.49 10.23 13.020 7.95 31.89-5.070 42.090zM602 116.64v-62.64h-180v167.94c0 34.89 28.17 72.42 90 72.42 61.86 0 90-37.53 90-72.42v-105.3z"  horiz-adv-x="1024" />

    
    <glyph glyph-name="xiazai" unicode="&#58929;" d="M889.689 28.799h-755.379c-12.454 0-22.549-10.095-22.549-22.549 0-12.453 10.095-22.549 22.549-22.549h755.379c12.454 0 22.549 10.096 22.549 22.549 0 12.454-10.095 22.549-22.549 22.549zM486.523 108.674c4.438-4.438 10.266-6.627 16.082-6.591 5.816-0.036 11.644 2.153 16.082 6.591l327.864 327.822c8.806 8.806 8.806 23.083 0 31.888-8.807 8.806-23.083 8.806-31.889 0l-289.509-289.468v582.832c0 12.454-10.095 22.549-22.549 22.549-12.454 0-22.549-10.095-22.549-22.549v-582.831l-289.306 289.263c-8.807 8.806-23.083 8.806-31.889 0-8.806-8.806-8.806-23.083 0-31.888l327.662-327.619z"  horiz-adv-x="1024" />

    
    <glyph glyph-name="markfill" unicode="&#58948;" d="M512 832c-247.040 0-448-172.256-448-384 0-182.976 149.344-339.168 357.056-375.744l64.896-90.848c6.016-8.416 15.712-13.408 26.048-13.408s20.032 4.992 26.048 13.408l64.896 90.88c207.712 36.544 357.056 192.704 357.056 375.712 0 211.744-200.96 384-448 384zM288.032 384c-35.296 0-64 28.704-64 64s28.704 64 64 64 64-28.704 64-64-28.704-64-64-64zM512.032 384c-35.296 0-64 28.704-64 64s28.704 64 64 64c35.296 0 64-28.704 64-64s-28.704-64-64-64zM736.032 384c-35.296 0-64 28.704-64 64s28.704 64 64 64 64-28.704 64-64-28.704-64-64-64z"  horiz-adv-x="1024" />

    
    <glyph glyph-name="mark" unicode="&#58947;" d="M512-32c-10.336 0-20.032 4.992-26.016 13.408l-64.896 90.848c-207.744 36.576-357.088 192.768-357.088 375.744 0 211.744 200.96 384 448 384s448-172.256 448-384c0-183.008-149.344-339.168-357.056-375.712l-64.896-90.88c-6.016-8.416-15.712-13.408-26.048-13.408zM512 768c-211.744 0-384-143.552-384-320 0-154.976 132.928-287.328 316.064-314.656 8.576-1.28 16.288-6.016 21.312-13.056l46.624-65.216 46.624 65.248c5.024 7.072 12.704 11.776 21.312 13.056 183.136 27.296 316.064 159.616 316.064 314.624 0 176.448-172.256 320-384 320zM288.032 384c-35.296 0-64 28.704-64 64s28.704 64 64 64 64-28.704 64-64-28.704-64-64-64zM288.064 448c-0.032 0-0.064 0-0.064 0l0.032-32 0.032 32zM736.032 384c-35.296 0-64 28.704-64 64s28.704 64 64 64 64-28.704 64-64-28.704-64-64-64zM736.064 448c-0.032 0-0.064 0-0.064 0l0.032-32 0.032 32zM512.032 384c-35.296 0-64 28.704-64 64s28.704 64 64 64c35.296 0 64-28.704 64-64s-28.704-64-64-64zM512.064 448c0 0-0.064 0-0.064 0l0.032-32 0.032 32z"  horiz-adv-x="1024" />

    
    <glyph glyph-name="peoplefill" unicode="&#58950;" d="M649.6 283.733c86.4 48 147.2 144 147.2 249.6 0 160-128 288-288 288s-288-128-288-288c0-108.8 57.6-201.6 147.2-249.6-121.6-48-214.4-153.6-240-288-3.2-9.6 0-19.2 6.4-25.6 3.2-9.6 12.8-12.8 22.4-12.8h704c9.6 0 19.2 3.2 25.6 12.8 6.4 6.4 9.6 16 6.4 25.6-25.6 134.4-121.6 240-243.2 288z"  horiz-adv-x="1024" />

    
    <glyph glyph-name="people" unicode="&#58949;" d="M800 533.333c0 160-128 288-288 288s-288-128-288-288c0-108.8 57.6-201.6 147.2-249.6-121.6-48-214.4-153.6-240-288-3.2-16 6.4-35.2 25.6-38.4h6.4c16 0 28.8 9.6 32 25.6 28.8 150.4 160 259.2 313.6 262.4h6.4c156.8 0 284.8 128 284.8 288zM288 533.333c0 124.8 99.2 224 224 224s224-99.2 224-224c0-121.6-99.2-220.8-220.8-224h-9.6c-121.6 3.2-217.6 102.4-217.6 224zM723.2 242.133c-16 9.6-35.2 6.4-44.8-9.6-9.6-16-6.4-35.2 9.6-44.8 73.6-51.2 124.8-121.6 140.8-204.8 3.2-16 16-25.6 32-25.6h6.4c16 3.2 28.8 19.2 25.6 38.4-19.2 99.2-80 185.6-169.6 246.4z"  horiz-adv-x="1024" />

    
    <glyph glyph-name="duihua" unicode="&#58895;" d="M805.121 6.916c-9.225 0-20.872 2.726-34.792 11.18l-126.626 78.796h-158.899c-43.645 0-80.888 27.867-94.918 66.735l-78.727-48.988c-34.696-21.079-57.29-14.374-67.698-8.536-14.374 8.095-22.952 23.75-22.952 41.897v76.524h-27.027c-72.366 0-131.239 58.873-131.239 131.252l0 277.526c0 72.366 58.873 131.239 131.239 131.239h32.122c11.676 0 21.148-9.473 21.148-21.148 0-11.676-9.473-21.148-21.148-21.148h-32.122c-49.042 0-88.943-39.901-88.943-88.943v-277.526c0-49.056 39.901-88.956 88.943-88.956h69.323v-118.82c0-2.933 0.813-4.709 1.404-5.025 1.57-0.95 9.665-1.501 24.797 7.696l186.669 116.148h233.881c49.042 0 88.943 39.901 88.943 88.956v277.526c0 49.042-39.901 88.943-88.943 88.943h-359.723c-11.676 0-21.148 9.473-21.148 21.148 0 11.676 9.473 21.148 21.148 21.148h359.722c72.366 0 131.239-58.873 131.239-131.239v-133.799h17.61c55.61 0 100.852-45.242 100.852-100.852v-200.906c0-55.61-45.242-100.852-100.852-100.852h-13.713v-49.566c0-15.269-7.325-28.514-19.592-35.412-4.268-2.41-10.974-4.998-19.978-4.998zM427.252 186.88c5.122-27.124 28.982-47.693 57.551-47.693h170.987l136.691-85.060c4.475-2.726 7.724-3.951 9.844-4.516l0.069 89.576h56.011c32.286 0 58.557 26.269 58.557 58.557v200.906c0 32.286-26.269 58.557-58.557 58.557h-17.609v-101.43c0-72.379-58.873-131.252-131.239-131.252l-221.792-0-60.512-37.643zM671.445 413.546h-22.084c-11.676 0-21.148 9.473-21.148 21.148 0 11.676 9.473 21.148 21.148 21.148h22.084c11.676 0 21.148-9.473 21.148-21.148s-9.473-21.148-21.148-21.148zM671.445 547.194h-149.123c-11.676 0-21.148 9.473-21.148 21.148 0 11.676 9.473 21.148 21.148 21.148h149.123c11.676 0 21.148-9.473 21.148-21.148s-9.473-21.148-21.148-21.148z"  horiz-adv-x="1024" />

    
    <glyph glyph-name="daochu" unicode="&#58899;" d="M786.12500001 439.98214286l0.16071428 0L523.46428571 718.3928571399999c-6.80357143 6.80357143-17.94642858 6.80357143-24.75 0L238.08928571 440.14285714C235.89285714 438.42857143 234.5 436.28571429 234.5 433.87500001c0-5.73214286 7.5-10.28571429 16.92857143-10.28571429 0 0 0.05357143 0 0.16071429 0l0 0 131.35714285 0c9.91071429-5.62500001 22.60714286-16.28571429 27.10714286-35.35714286l0-108.53571429c0-19.39285714 15.75-35.03571429 35.08928571-35.03571429l133.71428572 0c19.33928572 0 35.03571429 15.64285714 35.03571428 35.03571429L613.89285714 392.78571429c3.37500001 7.28571429 11.41071429 21.85714286 24.80357144 30.80357143l139.07142856-1e-8 1e-8 0.53571428c6.91071429 1.33928572 11.83928572 5.14285714 11.83928571 9.75000002C789.60714286 436.17857143 788.32142857 438.26785715 786.12500001 439.98214286zM410.10714286 208.44642856999997l0-14.99999999c0-19.28571429 15.75-35.03571429 35.08928572-35.03571429l133.76785713 0c19.39285714 0 35.08928572 15.75 35.08928572 35.03571429l0 15L410.10714286 208.44642856999997zM887 208.44642856999997c-0.21428571 10.01785715-9.42857143 18.05357143-20.78571429 18.05357143-11.46428571 0-20.73214286-8.03571429-20.78571428-18.05357142l-0.69642858 0 0-86.19642858c0-24.16071429-19.55357143-43.76785715-43.71428571-43.76785715L222.44642857 78.48214284999995c-24.16071429 0-43.76785715 19.60714286-43.76785714 43.76785715l0 86.19642858L178.57142857 208.44642856999997c-0.05357143 10.01785715-9.32142857 18.05357143-20.78571428 18.05357143-11.35714286 0-20.57142857-8.03571429-20.78571429-18.05357142l0 0 0-76.33928572c0-48.42857143 39.05357143-87.64285714 87.26785715-87.64285715l575.46428571 0c48.16071429 0 87.26785715 39.16071429 87.26785714 87.64285715L887 208.44642856999997 887 208.44642856999997z"  horiz-adv-x="1024" />

    
    <glyph glyph-name="chaping" unicode="&#58983;" d="M335.157 498.281c-31.579 0-58.421-26.842-58.421-58.421 0-33.157 26.842-58.421 58.421-58.421 31.579 0 58.421 26.842 58.421 58.421 0 33.158-26.842 58.421-58.421 58.421zM747.263 439.86c0 33.158-26.842 58.421-58.421 58.421-31.579 0-58.421-26.842-58.421-58.421 0-33.157 26.842-58.421 58.421-58.421 31.579 0 58.421 26.842 58.421 58.421zM308.316 240.912c-34.737-17.368-4.736-67.895 30-52.105 104.21 50.527 243.158 56.843 347.368 0 33.157-18.948 63.158 33.157 30 52.105-123.157 67.895-284.211 61.579-407.369 0zM812 717.754c-146.843 135.789-367.895 153.158-536.842 50.527-33.157-20.526-3.157-72.632 30-52.105 120 72.632 268.421 78.948 391.579 12.632 104.211-56.843 175.264-159.474 195.789-274.736 22.105-118.421-17.368-243.158-97.895-330-82.105-88.421-200.526-131.053-320.527-121.579-120 9.473-228.947 82.105-292.105 183.157-74.211 118.421-74.211 274.736-4.736 396.316 18.948 33.157-33.157 63.158-52.105 30-69.474-121.579-78.948-271.579-22.105-402.631 47.369-110.526 135.789-194.211 246.316-238.421 113.684-47.369 243.158-39.473 353.684 11.052 107.368 48.947 189.473 143.684 230.527 254.211 60 167.368 7.895 363.158-121.579 481.579z"  horiz-adv-x="1024" />

    
    <glyph glyph-name="anquan" unicode="&#58924;" d="M512 748.999l389.001-167.001 0-253.001c0-58-9.844-114.343-29.5-169.001-19.671-54.672-46.5-104-80.5-148-35.344-46-76.672-85.001-124-117.001-47.344-32-99.001-54.656-155.001-68-56 13.344-107.671 36-155.001 68-47.344 32-88.672 71.001-124 117.001-34 44-60.844 93.328-80.5 148-19.671 54.656-29.5 111.001-29.5 169.001l0 253.002 389.001 166.999zM512 288.999l0 369.001-302.999-131.001 0-238 302.999 0 0-374c40.656 11.328 78 29.156 112 53.5 34 24.329 64 53.156 90 86.5 26.656 32.656 48.656 68.828 66 108.5 17.328 39.657 29.001 81.5 35.001 125.5l-303.001 0z"  horiz-adv-x="1024" />

    
    <glyph glyph-name="liulan" unicode="&#58937;" d="M959.58441 299.916089c0 5.366218-0.923022 9.876951-1.189082 10.383488-0.173962 2.675946-1.079588 7.511067-1.935072 10.085706-0.2415 0.623193-0.50756 1.27197-0.779759 1.935072-0.444115 1.469468-0.957815 2.899026-1.488911 4.028757-82.568531 180.547029-260.247232 301.871235-442.176748 301.871235-181.885514 0-359.577518-121.234155-441.749006-300.793694-0.986467-1.973958-1.676176-3.818979-2.117221-5.458315-0.213871-0.518816-0.422625-1.01205-0.597611-1.493004-1.638313-4.743024-1.670036-8.057513-1.520633-7.226588-0.779759-3.496637-1.462305-10.408047-1.462305-10.408047-0.208754-2.119267-0.208754-3.76986 0.025583-5.874801 0 0 0.688685-6.030343 1.01512-7.28901 0.122797-1.702782 0.539282-4.199649 1.045819-6.500041l-0.026606 0c0.415462-1.948375 1.040702-3.818979 1.846044-5.678326 0.447185-1.428535 0.920976-2.768043 1.37737-3.755534 82.644255-180.611497 260.33626-301.963333 442.163445-301.963333 181.955098 0 359.64301 121.259738 441.247586 299.962769 1.287319 2.325975 2.092661 4.508687 2.65855 6.445806 0.239454 0.572028 0.448208 1.103124 0.623193 1.610684 1.434675 4.183276 1.734504 7.756661 1.610684 7.756661l-0.025583-0.023536C958.695157 290.429017 959.58441 294.757602 959.58441 299.916089L959.58441 299.916089zM915.504472 297.552252c-0.031722-0.169869-0.096191-0.325411-0.12996-0.481977-0.12996-0.415462-0.285502-0.857531-0.415462-1.36509-78.467119-169.149445-233.859235-280.413528-402.943189-280.413528-168.669514 0-324.218196 110.915136-403.483494 280.7021-0.162706 0.572028-0.319272 1.140986-0.512676 1.675152-0.058328 0.545422-0.155543 1.027399-0.187265 1.350764-0.060375 0.339738-0.124843 0.793062-0.196475 1.235131l0.038886 0.415462c0.157589 0.704035 0.287549 1.442862 0.38374 2.196015 0.124843 0.415462 0.246617 0.832971 0.378623 1.27504 78.530564 169.251775 234.501872 281.479813 403.579685 281.479813 169.149445 0 324.638775-112.331391 402.917606-281.31199 0.092098-0.325411 0.155543-0.60989 0.24764-0.831948 0.064468-0.285502 0.161682-0.572028 0.251733-0.857531 0.163729-1.27504 0.325411-2.52245 0.488117-3.158946C915.724483 298.825244 915.634432 298.189771 915.504472 297.552252L915.504472 297.552252zM512.015861 449.194974c-82.262562 0-149.187811-66.925249-149.187811-149.201114 0-82.259492 66.924225-149.186787 149.187811-149.186787 82.266655 0 149.192927 66.926272 149.192927 149.186787C661.208788 382.268702 594.282516 449.194974 512.015861 449.194974L512.015861 449.194974zM512.015861 190.936025c-60.131519 0-109.070114 48.928363-109.070114 109.057835 0 60.142775 48.938596 109.085464 109.070114 109.085464 60.135612 0 109.070114-48.941666 109.070114-109.085464C621.085976 239.865411 572.151473 190.936025 512.015861 190.936025L512.015861 190.936025zM512.015861 190.936025"  horiz-adv-x="1024" />

    
    <glyph glyph-name="guanli" unicode="&#58903;" d="M645.995295-122.081061l-0.005117 0c-16.259312 0.00614-32.066323 6.727215-42.274826 17.995863-13.908778 15.245216-57.977459 54.898331-94.052073 54.898331-35.824927 0-80.5782-39.885406-93.429903-53.851489-10.184967-11.070126-25.880437-17.685801-41.984207-17.685801-7.67275 0-14.908548 1.474584-21.519106 4.376681l-1.156336 0.50756L241.92647-54.518293l-1.089821 0.757247c-19.962657 13.970176-27.558659 41.303708-17.666358 63.572898 0.075725 0.169869 10.113335 23.332405 10.113335 44.450375 0 64.088644-52.143591 116.231211-116.230188 116.231211l-3.88754 0c-0.236384-0.00614-0.473791-0.010233-0.704035-0.010233-18.36016 0-33.307593 16.309454-38.086433 41.546232-0.38067 2.023076-9.355065 49.894364-9.355065 87.61343 0 37.718043 8.974395 85.59547 9.355065 87.615477 4.834098 25.560142 20.10899 41.978067 38.790468 41.537022l3.88754 0c64.086597 0 116.230188 52.143591 116.230188 116.230188 0 21.11183-10.032494 44.270273-10.137895 44.50154-9.878998 22.248723-2.231831 49.577139 17.815761 63.504336l1.13587 0.788969 115.717512 63.563688 1.205455 0.511653c6.517437 2.780323 13.651928 4.185322 21.212114 4.185322 16.070001 0 31.795147-6.465249 42.075281-17.298991 13.696953-14.33959 56.987922-51.633984 92.027973-51.633984 34.7085 0 77.737502 36.556591 91.38943 50.64547 10.219759 10.612709 25.835412 16.96744 41.742706 16.96744 7.713682 0 14.984273-1.457188 21.605064-4.335748l1.171686-0.5137 111.768573-62.09115 1.101077-0.774643c19.996426-13.951757 27.613918-41.285289 17.7165-63.567781-0.075725-0.170892-10.114358-23.334451-10.114358-44.451398 0-64.086597 52.142567-116.230188 116.230188-116.230188l3.888564 0c18.654872 0.417509 33.951253-15.972786 38.789445-41.537022 0.38067-2.020006 9.355065-49.892317 9.355065-87.611383 0-37.719066-8.974395-85.59547-9.360182-87.617523-4.833075-25.559119-20.128433-41.917692-38.788421-41.535999l-3.883447 0c-64.087621 0-116.230188-52.142567-116.230188-116.231211 0-21.11183 10.034541-44.264133 10.133801-44.4954 9.872858-22.233374 2.245134-49.566906-17.766642-63.509453l-1.12052-0.783853-113.65248-62.815651-1.184989-0.511653C660.622434-120.659689 653.513526-122.081061 645.995295-122.081061L645.995295-122.081061zM642.544707-68.535541c0.50756-0.331551 1.943258-0.893346 3.450589-0.893346 0.061398 0 0.12075 0 0.170892 0.004093l106.187461 58.68661c-2.563382 5.955642-14.284331 34.856879-14.284331 64.996316 0 90.149183 71.006194 164.030867 160.022577 168.650071 1.282203 7.075139 8.235568 46.876634 8.235568 76.734662 0 29.853935-6.953366 69.638033-8.235568 76.732615-89.016383 4.623297-160.022577 78.500888-160.022577 168.650071 0 30.187533 11.756765 59.122539 14.299681 65.032132l-104.462167 58.036811c-0.121773 0.005117-0.268106 0.014326-0.438998 0.014326-1.777483 0-3.440355-0.647753-3.992941-1.020236-1.753947-1.804089-16.897855-17.157775-38.649252-32.458249-32.197306-22.648836-62.639642-34.135448-90.489944-34.135448-28.121478 0-58.810431 11.711739-91.213421 34.808784-21.88545 15.59621-37.095873 31.247678-38.853913 33.080419-0.556679 0.3776-2.240017 1.045819-4.034896 1.045819-0.140193 0-0.26606-0.005117-0.37146-0.010233l-108.201327-59.428507c2.593058-6.030343 14.270005-34.879392 14.270005-64.965617 0-90.149183-71.00517-164.027797-160.022577-168.650071-1.281179-7.079232-8.234545-46.873564-8.234545-76.732615 0-29.854958 6.953366-69.635987 8.239662-76.728522 89.013313-4.625344 160.018483-78.502935 160.018483-168.652118 0-30.247908-11.802814-59.232033-14.314007-65.065901l102.407368-57.261145c0.065492-0.00614 0.141216-0.00614 0.226151-0.00614 1.497097 0 2.914376 0.545422 3.420913 0.873903 1.915629 2.054799 17.20894 18.243503 39.241746 34.394345 32.838919 24.068162 64.046688 36.271088 92.752474 36.271088 28.979008 0 60.423161-12.437264 93.453439-36.96489C625.275391-49.9523 640.634194-66.444926 642.544707-68.535541L642.544707-68.535541zM510.038834 145.443925c-85.348853 0-154.786319 69.435419-154.786319 154.786319 0 85.348853 69.436442 154.786319 154.786319 154.786319 85.351923 0 154.794505-69.437465 154.794505-154.786319C664.832316 214.87832 595.390757 145.443925 510.038834 145.443925L510.038834 145.443925zM510.038834 402.366436c-56.31868 0-102.136192-45.817512-102.136192-102.136192 0-56.32175 45.817512-102.144378 102.136192-102.144378 56.319703 0 102.142331 45.822628 102.142331 102.144378C612.181165 356.548924 566.363653 402.366436 510.038834 402.366436L510.038834 402.366436zM510.038834 402.366436"  horiz-adv-x="1024" />

    
    <glyph glyph-name="fuzhi" unicode="&#58893;" d="M457.41829427 14.739095049999946h-303.47490235c-7.6640625 0-13.01748047 7.2140625-13.01748047 12.52705078v309.69052734c0 9.43242187 6.75 14.32353516 13.01748047 14.32353516h303.04863282c9.77519531 0 14.37539062-7.08310547 14.37539062-13.42441406v-309.69052735c0-7.66494141-5.99501953-13.42617187-13.94824219-13.42617187zM160.4508138 335.39397785999995c-2.30976563 0-4.18974609-2.025-4.18974609-4.5149414v-295.50673829c0-2.48994141 1.87998047-4.51494141 4.18974609-4.5149414l290.39414062 0c2.31064453 0 4.18974609 2.025 4.1897461 4.5149414v295.50761719c0 2.48994141-1.87910156 4.51494141-4.1897461 4.51494141h-290.39414062zM875.45774739 427.98938802h-293.39296875c-7.40830078 0-12.58505859 7.2140625-12.58505859 12.52705078v309.68964844c0 9.43242187 6.52587891 14.32353516 12.58505859 14.32353515h292.98076172c9.45087891 0 13.89726563-7.08310547 13.89726563-13.42441406v-309.69052734c0-7.6640625-5.79550781-13.42529297-13.4850586-13.42529297zM588.35511067 748.64427083c-2.23242188 0-4.05-2.025-4.05-4.51494141v-295.50673828c0-2.48994141 1.81757813-4.51582031 4.05-4.51582031h280.74638672c2.23417969 0 4.05087891 2.02675781 4.05087891 4.51582031v295.50673828c0 2.48994141-1.81669922 4.51494141-4.05087891 4.51494141l-280.74638672 0zM221.54534505 570.68069661c0 23.96513672 19.42646484 43.39072266 43.39072266 43.39072266h87.89326171v-58.20205078l88.76513672 88.76601562-88.76513672 88.76513672v-62.75039063l-104.08359375 0c-53.85761719 0-88.03300781-38.03378906-88.03300781-86.23476562v-103.49560547h60.83261719v89.76005859zM821.49905599 195.70237629999997c0-23.96425781-19.42646484-43.38984375-43.38984375-43.38984375h-87.89326172v58.20205078l-88.76513672-88.76689453 88.76513672-88.76337891v62.75039063h104.08359375c53.85673828 0 88.03300781 38.03291016 88.03300781 86.23476562l0 103.49384766h-60.83349609l0-89.7600586z"  horiz-adv-x="1024" />

    
    <glyph glyph-name="zhifubao" unicode="&#59011;" d="M568.24574831 269.81547620000003c0 0-56.23129252-45.00595238-76.69132654-56.79676872-17.98384354-10.35884354-34.86394557-17.24319728-49.8877551-22.02891156-15.05102041-4.77380952-28.23724489-7.77721088-39.55612246-9.02040817s-20.68962585-2.02806123-28.12840135-2.39285714c-0.70408164-0.33758504-1.5952381-0.52721089-2.65136056-0.52721088h-8.49404761c-19.46003401 0-37.76955783 2.29761906-54.93282313 6.90986393-17.17517007 4.59948981-32.11819728 11.41326531-44.85629251 20.43622451-12.73894557 9.01955782-22.8282313 20.35289115-30.25170069 33.97108842-7.42261905 13.63180272-11.14285714 29.46768708-11.14285714 47.5085034 0.35034012 15.56632653 4.59778911 29.72534014 12.72619048 42.46343538 8.15561223 12.73894557 18.67602041 23.5297619 31.59013605 32.38860544s27.24914966 15.56632653 43.00425171 20.17687076c15.74234694 4.59778911 31.57653062 6.53146259 47.50850339 5.82823128 15.56632653-0.70323129 30.60374149-2.55612245 45.11564626-5.5595238 14.51020408-3.01445578 28.41326531-6.63945579 41.66836735-10.88690476 13.2670068-4.24659864 25.82993197-8.84438776 37.69132653-13.80782314 11.85969388-4.96258504 23.08503402-9.73724489 33.69982993-14.33503401 4.24659864-1.7712585 8.66836735-3.54336733 13.26615647-5.31377551 4.59948981-1.77040816 9.37244899-3.54336733 14.33588435-5.31377551 10.26530612 13.09098639 18.9192177 25.91156463 26.00510204 38.4872449 7.07312925 12.5637755 12.91581632 24.05782312 17.51360544 34.49829932 4.61139455 10.4404762 8.15561223 19.18962585 10.63010205 26.27636054 2.4744898 7.07312925 4.05697279 12.02210884 4.77380951 14.86309524h-230.38860544v25.47874151h108.82482994v58.90731291h-151.2882653v25.4787415h151.2882653v47.77891157c0 3.17687075 1.75850341 5.74829932 5.30102042 7.69387755 3.54251702 1.94812925 7.61479593 3.2729592 12.21088434 3.97534014 5.31377551 1.06802722 11.31972789 1.59438775 18.03911565 1.59438776h40.86734694v-61.04506804h155.5212585v-25.47874149h-155.5212585v-58.90731293h123.59183673c0.02551021 0.17517007 0.05357142 0.35034012 0.07993198 0.52721088v-0.52721088h-0.07993198c-2.50255102-15.76870748-6.70748299-32.40136055-12.65731292-49.90221089-4.9489796-15.21428571-12.29251701-32.55187075-22.0297619-52.01190476-9.73639455-19.46003401-22.55867347-39.46088436-38.4872449-59.98979592 0 0 121.81972789-58.27380952 250.41326531-78.78911564 21.3537415 47.35799319 33.25255102 99.92431973 33.25255102 155.25085035 0.00085035 208.81802721-169.30017008 378.10544216-378.11734694 378.10544216-208.82993198 0-378.11819728-169.28826531-378.11819728-378.10544216 0-208.81717687 169.28826531-378.11904763 378.11819727-378.11904763 129.52806122 0 243.84353741 65.14370748 311.98894558 164.44812925-69.23894558 15.09098639-142.79591836 45.64115646-255.74319728 95.81377551v0 0zM270.99744897 286.80102039999997c-1.42091837-64.88605442 71.98639455-69.69982992 83.30527213-70.0510204 37.42091836-1.14880952 67.63180272 12.98384354 91.14965986 26.95323129 23.5297619 13.9829932 61.91071428 50.07823129 63.34438775 51.32227891 1.40646259 1.24489796 2.82568027 2.55612245 4.23384354 3.97534014-10.26530612 5.66581632-20.35204082 10.88690477-30.25170068 15.65986395-9.89795918 4.77380952-60.24659863 31.82142857-104.91581634 36.43197279-84.58843538 8.77636055-106.43027211-44.56207483-106.86394558-64.29251702v0 0z"  horiz-adv-x="1024" />

    
    <glyph glyph-name="bianji" unicode="&#58892;" d="M527.759 368.241c20.221 20.222 40.442 40.442 60.664 60.664 44.315 44.315 88.63 88.63 132.945 132.945 43.885 43.885 87.771 87.772 131.658 131.658 18.964 18.964 37.928 37.928 56.891 56.891 9.461 9.461 9.461 25.27 0 34.732-9.463 9.461-25.27 9.461-34.732 0-20.222-20.222-40.442-40.442-60.664-60.664-44.315-44.315-88.63-88.63-132.945-132.945-43.885-43.886-87.772-87.772-131.658-131.658-18.964-18.964-37.927-37.928-56.891-56.891-9.463-9.461-9.463-25.271 0-34.732 9.461-9.461 25.269-9.461 34.732 0v0zM871.586 384.255c0-44.692 0-89.383 0-134.075 0-48.846 0-97.693 0-146.539 0-0.271 0-0.542 0-0.815 0-2.38-0.097-4.754-0.245-7.128-0.087-1.407-0.232-2.81-0.377-4.212-0.463-4.475 1.055 6.441-0.123-0.378-0.936-5.412-2.418-10.718-4.214-15.904-0.444-1.282-0.939-2.546-1.435-3.809 2.768 7.062 1.034 2.434 0.338 0.904-1.299-2.856-2.783-5.622-4.339-8.345-1.327-2.324-2.791-4.567-4.296-6.779-0.751-1.104-1.545-2.178-2.338-3.251 4.455 6.029 1.582 2.062 0.533 0.787-3.668-4.46-7.79-8.529-12.15-12.308-1.007-0.873-2.048-1.707-3.087-2.54 5.858 4.693 2.036 1.602 0.7 0.641-2.171-1.562-4.433-2.994-6.719-4.381-2.296-1.393-4.671-2.648-7.069-3.855-1.204-0.606-2.431-1.163-3.657-1.721-3.927-1.786 5.881 2.288-0.399-0.077-5.132-1.933-10.447-3.341-15.818-4.421-1.362-0.274-2.735-0.492-4.108-0.71 7.767 1.234 2.698 0.366 0.969 0.187-3.301-0.341-6.621-0.453-9.937-0.477-0.506-0.003-1.010 0-1.516 0-3.855 0-7.709 0-11.563 0-44.182 0-88.365 0-132.547 0-66.235 0-132.47 0-198.705 0-56.327 0-112.655 0-168.982 0-14.46 0-28.921 0-43.382 0-2.057 0-4.114 0-6.17 0-2.379 0-4.752 0.097-7.126 0.245-1.407 0.087-2.81 0.232-4.212 0.377-5.22 0.539 6.151-0.933 0.992-0.114-5.883 0.935-11.65 2.504-17.273 4.451-1.282 0.444-2.546 0.939-3.809 1.435 7.062-2.768 2.433-1.034 0.904-0.338-2.449 1.113-4.829 2.371-7.181 3.674-2.342 1.298-4.606 2.732-6.839 4.209-1.114 0.737-2.199 1.517-3.283 2.296-3.469 2.495 4.821-3.941-0.287 0.26-4.116 3.386-7.896 7.165-11.435 11.143-0.886 0.996-1.732 2.025-2.579 3.054-3.173 3.857 3.557-4.761 0.586-0.743-1.854 2.509-3.544 5.136-5.161 7.803-1.393 2.296-2.648 4.672-3.855 7.070-0.606 1.203-1.163 2.431-1.721 3.657-2.095 4.607 2.252-5.591 0.402-0.87-2.166 5.527-3.73 11.274-4.9 17.088-0.274 1.362-0.492 2.735-0.71 4.108 1.234-7.767 0.366-2.698 0.187-0.969-0.292 2.825-0.408 5.665-0.467 8.503-0.012 0.596-0.010 1.192-0.010 1.788 0 0.978 0 1.956 0 2.934 0 12.677 0 25.352 0 38.029 0 54.437 0 108.874 0 163.31 0 66.581 0 133.164 0 199.745 0 46.766 0 93.532 0 140.298 0 4.85 0 9.7 0 14.55 0 1.055 0 2.111 0 3.166 0 0.157 0 0.313 0 0.47 0 1.908 0.064 3.813 0.157 5.719 0.068 1.412 0.193 2.82 0.319 4.228 0.619 6.917-0.666-3.984 0.031 0.406 0.864 5.435 2.277 10.769 4.006 15.987 0.428 1.289 0.907 2.561 1.386 3.832 1.787 4.745-2.434-5.504-0.402-0.87 1.262 2.875 2.711 5.663 4.231 8.409 1.298 2.342 2.732 4.606 4.209 6.839 0.737 1.114 1.517 2.199 2.296 3.283 2.917 4.057-3.709-4.641-0.586-0.743 3.61 4.507 7.68 8.63 11.99 12.465 0.996 0.886 2.025 1.732 3.054 2.579 3.857 3.172-4.761-3.557-0.743-0.586 2.15 1.589 4.391 3.050 6.658 4.466 2.276 1.421 4.634 2.707 7.013 3.945 1.194 0.621 2.413 1.195 3.632 1.768 6.060 2.852-3.679-1.425 0.357 0.157 5.097 1.997 10.385 3.475 15.731 4.626 1.356 0.292 2.723 0.528 4.089 0.764 5.148 0.89-6.203-0.725-0.992-0.114 3.287 0.385 6.595 0.542 9.902 0.611 44.789 0.923 89.692 0.010 134.488 0.010 49.143 0 98.288 0 147.431 0 0.316 0 0.632 0 0.949 0 13.388 0 24.559 11.171 24.559 24.559s-11.171 24.559-24.559 24.559c-44.692 0-89.383 0-134.075 0-48.846 0-97.693 0-146.539 0-46.882 0-91.449-26.156-113.18-67.945-11.166-21.472-14.529-44.477-14.529-68.268 0-41.843 0-83.685 0-125.528 0-65.813 0-131.626 0-197.44 0-57.823 0-115.646 0-173.469 0-15.928 0-31.855 0-47.782 0-2.97 0-5.94 0-8.91 0-20.821 5.198-40.824 14.529-59.358 20.992-41.703 66.547-67.946 112.774-67.946 9.436 0 18.871 0 28.307 0 50.832 0 101.663 0 152.495 0 66.812 0 133.624 0 200.436 0 50.832 0 101.663 0 152.495 0 9.436 0 18.871 0 28.307 0 46.702 0 91.16 26.381 112.776 67.946 9.597 18.454 14.529 38.968 14.529 59.763 0 5.61 0 11.22 0 16.829 0 26.421 0 52.841 0 79.262 0 57.716 0 115.431 0 173.146 0 3.792 0 7.584 0 11.376 0 13.388-11.171 24.559-24.559 24.559-13.388 0.002-24.559-11.169-24.559-24.557v0z"  horiz-adv-x="1024" />

    
    <glyph glyph-name="gongzhonghao" unicode="&#59012;" d="M722.5416626 327.24289855999996l-89.75913849-89.75913849-38.27180786 38.27180786c-7.25015259 7.25015259-18.99834137 7.25015259-26.24935913 0s-7.25015259-18.9974762 0-26.24935913l46.99188995-46.99188995c0.73453217-0.73539734 1.65248108-1.37735596 2.47958679-2.0184494 0.64195862-0.82710571 1.00879212-1.83503266 1.74332429-2.66300355 7.25015259-7.25015259 19.09091491-7.25015259 26.34193267 0l103.06809997 103.06809998c7.24928742 7.25015259 7.24928742 19.09091491 0 26.34193268-7.24928742 7.34272613-19.09091491 7.34272613-26.34279785 0zM513.19220886 770.0836029c-210.81938324 0-381.80532074-170.89336395-381.80532073-381.80532073 0-210.81938324 170.89336395-381.80532074 381.80532073-381.80532074s381.80532074 170.89336395 381.80532074 381.80532074c0 210.81938324-170.89336395 381.80532074-381.80532074 381.80532073zM263.36562042 188.01228332999995c-4.13120269 0-7.43183899 1.28305206-7.43183899 2.84382476v76.729628c0 2.75557709 7.43183899 5.78108825 7.43183899 5.78108825s35.1519928 43.22838592 79.75686951 77.27814789c20.65168762 15.78422242 43.32095947 29.55432129 61.76818542 39.82998505v17.89870605c-33.22265625 21.29364624-55.89452362 62.59615631-55.89452362 110.22913971 0 69.38690186 47.90724335 116.37706147 107.10759431 116.37706147 59.10518189 0 107.1075943-46.99188995 107.10759429-116.37706147 0-47.63384858-22.57756348-88.93462829-55.89452362-110.2291397v-17.43843385c11.28964692-6.33047333 24.32348327-14.22431488 37.44729767-22.94526215-17.62098541-24.50603485-28.08525696-54.42545929-28.08525696-86.82360534 0-35.24197083 12.29757386-67.6427124 32.76497955-93.15667419h-286.07821655zM665.54663849 150.84184113000003c-71.95387115 0-130.33057709 58.37238006-130.33057709 130.33057708s58.37238006 130.33057709 130.33057709 130.33057709 130.33057709-58.37238006 130.33057709-130.33057709-58.28326721-130.33057709-130.33057709-130.33057708z"  horiz-adv-x="1024" />

    
    <glyph glyph-name="hongbao" unicode="&#59374;" d="M704.15418557 72.78804892000005h-384.30908402c-47.17061393 0-85.41952386 37.65793168-85.41952384 84.11709052v420.58473969l256.21936311-84.11709051h42.70940549l256.21936311 84.11709051v-420.54553124c0-46.45987171-38.24890991-84.15629896-85.41952385-84.15629897v0zM534.38160762 284.40388210000003l61.97287221 0.15754667c15.5130005-0.15754667 21.03925297 7.77610448 21.3550592 17.32870806 0.23738933 8.28866581-7.69768757 23.92000454-21.71078674 24.27573208h-61.97287222v14.72312851c0 0 47.01235439 47.28823928 59.24895442 58.22311886 12.15747027 10.93416671 15.2371156 19.53935163 7.73689604 28.38121298-7.61784492 9.03932937-21.07846141 8.48684669-30.90766278 0.4733529-9.98674804-8.17104047-58.02565087-52.1044624-58.02565085-52.1044624s-41.24942548 41.92024636-50.17041663 50.36788462c-8.0134938 7.57863648-25.02568275 14.96051783-34.18406322 4.73709334-9.55260359-10.65828182-2.13222667-23.9998472 3.86880445-29.84190588 5.96039692-5.7636418 57.55229797-59.48563087 57.55229798-59.48563088l-0.0784169-16.14461294h-64.65686867c-9.55260359 0-17.99952896-16.73630406-17.68372273-25.65800809 0.31580622-8.84186136 7.53942803-15.78888539 17.68372273-15.78888539 10.1442947 0 64.45940068 0.35501467 64.45940067 0.35501467l-0.15754666-45.0783086h-66.98513758c-9.55260359 0-17.56538451-9.47347381-17.96032051-18.39446495-0.35501467-8.92027825 7.14449202-20.96012318 17.96032051-20.96012318h66.8275909c0 0-0.11833823-15.43387072 0.27659777-21.86833341 0.90821021-14.36811383 10.46010093-20.21017252 23.24918366-20.44684896 12.78908272-0.23738933 21.82841207 10.30255426 21.82841206 19.69689829-0.03920844 7.77610448-0.23738933 22.61757119-0.23738933 22.6175712s55.61753931 0.0784169 66.11756157 0c10.50002226-0.07912978 18.35454362 10.38168403 17.92111206 20.96012318-0.39493599 10.61836047-6.90781558 18.75019252-22.85496053 18.75019251h-60.82798554l0.35501466 44.72258104zM533.35505918 535.4120861h-42.71011836l-256.21936311 84.1170905c0 46.45987171 38.24890991 84.11709052 85.41952384 84.11709052h384.34829247c47.17061393 0 85.41952386-37.65793168 85.41952385-84.11709052l-256.25857156-84.1170905zM533.35505918 535.4120861z"  horiz-adv-x="1024" />

    
    <glyph glyph-name="bangyouquan" unicode="&#59063;" d="M291.82264304 391.72476195c0 37.74143564 30.58946814 68.33090379 68.3309038 68.33090379s68.33090379-30.58946814 68.33090379-68.33090379c0-37.74143564-30.58946814-68.33090379-68.33090379-68.33090378S291.82264304 353.98332631999995 291.82264304 391.72476195zM663.84645316 323.39385817000004c37.74143564 0 68.33090379 30.58946814 68.33090381 68.33090378 0 37.74143564-30.58946814 68.33090379-68.33090381 68.33090379s-68.33090379-30.58946814-68.33090379-68.33090379C595.51554937 353.98332631999995 626.10501685 323.39385817000004 663.84645316 323.39385817000004zM694.21574367 300.61689046000004l-60.738581 0c-41.93239819 0-75.92322658-33.9908284-75.92322658-75.92322657l0-43.15476199c0-4.80594002-2.27769657-9.33096461-6.1345964-12.19327009l-36.33685589-24.61431032c-2.64212851-1.79178844-6.1270046-1.73864182-8.70839399 0.13666182l-33.78583568 24.4776485C468.72376115 172.21552977 466.44606391 176.73296188999996 466.44606391 181.53890190000004L466.44606391 224.69366389000004c0 41.93239819-33.9908284 75.92322658-75.92322658 75.92322657l-60.738581 0c-41.93239819 0-75.92322658-33.9908284-75.92322657-75.92322657l0-98.92796375c0-10.35592817 8.3971087-18.75303685 18.75303686-18.75303685l0.45553957 0c10.35592817 0 18.75303685 8.3971087 18.75303685 18.75303685L291.82264304 65.25488858000006l136.66180759 0L428.48445063 152.60456037999995l37.96161328-26.68701417 28.73694129-19.10987632c10.18889713-6.77235193 23.44509246-6.77235193 33.63398959 0L557.55393609 125.91754620999995l37.96161328 26.68701417L595.51554937 65.25488858000006l136.66180759 0 0 60.51081156c0-10.35592817 8.3971087-18.75303685 18.75303685-18.75303685l0.45553957-1e-8c10.35592817 0 18.75303685 8.3971087 18.75303686 18.75303686L770.13896958 224.69366389000004C770.13896958 266.62606206 736.14814119 300.61689046000004 694.21574367 300.61689046000004zM663.84645316 604.30979612c0-58.70383883-71.38301772-106.29251708-159.43877529-106.29251709-9.41447977 0-18.59359831 0.65293983-27.56013097 1.69308767C454.16927864 475.2554956 409.50364433 471.44414993 409.50364433 471.44414993c7.75176136 14.26597395 12.8158407 28.03085549 14.5165208 41.18075825C376.78073386 531.0742515300001 344.96890192 565.17896498 344.96890192 604.30979612c0 58.70383883 71.38301772 106.29251708 159.43877529 106.29251707S663.84645316 663.01363494 663.84645316 604.30979612zM462.64990252 604.30979612c0 12.58047877-10.19648961 22.77696771-22.77696772 22.77696771s-22.77696771-10.19648961-22.7769677-22.77696771 10.19648961-22.77696771 22.7769677-22.77696772S462.64990252 591.7293173400001 462.64990252 604.30979612zM530.98080631 604.30979612c0 12.58047877-10.19648961 22.77696771-22.7769677 22.77696771s-22.77696771-10.19648961-22.7769677-22.77696771 10.19648961-22.77696771 22.7769677-22.77696772S530.98080631 591.7293173400001 530.98080631 604.30979612zM599.31171011 604.30979612c0 12.58047877-10.19648961 22.77696771-22.77696773 22.77696771s-22.77696771-10.19648961-22.77696771-22.77696771 10.19648961-22.77696771 22.77696772-22.77696772S599.31171011 591.7293173400001 599.31171011 604.30979612z"  horiz-adv-x="1024" />

    
    <glyph glyph-name="zhongping" unicode="&#58982;" d="M334.955 500.81c-31.585 0-58.426-26.843-58.426-58.426 0-33.159 26.843-58.425 58.426-58.425 31.58 0 58.426 26.846 58.426 58.425 0 33.165-26.847 58.426-58.426 58.426v0zM747.1 442.384c0 33.165-26.843 58.426-58.426 58.426-31.58 0-58.426-26.843-58.426-58.426 0-33.159 26.847-58.425 58.426-58.425 31.584 0 58.426 26.846 58.426 58.425v0zM811.842 720.306c-146.858 135.805-367.931 153.176-536.892 50.533-33.164-20.529-3.159-72.638 30.001-52.109 120.011 72.637 268.449 78.954 391.618 12.631 104.223-56.846 175.279-159.489 195.808-274.762 22.108-118.436-17.368-243.182-97.903-330.034-82.114-88.432-200.546-131.063-320.557-121.591-120.012 9.476-228.972 82.113-292.136 183.177-74.217 118.432-74.217 274.762-4.734 396.353 18.948 33.165-33.163 63.165-52.112 30.006-69.479-121.591-78.955-271.609-22.108-402.672 47.374-110.539 135.805-194.232 246.341-238.443 113.693-47.375 243.182-39.478 353.716 11.051 107.381 48.954 189.494 143.699 230.551 254.234 60.006 167.386 7.898 363.194-121.591 481.626v0zM811.842 720.306zM725.161 229.874c0-14.625-11.856-26.481-26.481-26.481h-383.257c-14.625 0-26.48 11.856-26.48 26.481v0c0 14.625 11.856 26.48 26.48 26.48h383.258c14.625 0 26.48-11.856 26.48-26.48v0z"  horiz-adv-x="1024" />

    
    <glyph glyph-name="weixin" unicode="&#59009;" d="M373.79041748 536.0827651899999c-14.56346283 0-29.26621857-9.78078461-29.26621857-24.60379943 0-14.76418305 14.70448608-24.66522674 29.26621857-24.66522675 14.58336182 0 24.36328125 9.90017853 24.36328125 24.66522675 0 14.8273407-9.77040253 24.60379944-24.36328125 24.60379943zM509.93495941 486.79989625c14.70448608 0 24.42297821 9.9105606 24.42297821 24.66522674 0 14.8368576-9.7193573 24.60379944-24.42297821 24.60379943-14.56259766 0-29.21690368-9.78078461-29.21690369-24.60379943 0.00778656-14.75553131 14.65430603-24.66522674 29.21690369-24.66522675zM517.29325866 766.95081024c-211.81519775 0-383.50452118-171.67894135-383.50452118-383.50452118 0-211.81519775 171.68845825-383.50452118 383.50452118-383.50452118 211.82471466 0 383.51230774 171.68845825 383.51230774 383.50452118 0 211.82471466-171.68845825 383.50452118-383.51230774 383.50452118zM437.02766724 284.51458283c-24.30185395 0-43.86169281 4.97647705-68.14364777 9.90017852l-68.00868073-34.59568634 19.42833252 59.33272248c-48.69541625 34.50484314-77.84137573 78.92197723-77.84137573 133.06539001 0 93.83756561 87.63167725 167.71212158 194.5653717 167.71212158 95.67605896 0 179.47069244-59.04894562 196.27408906-138.43379058-6.12715759 0.69559937-12.40139466 1.14981537-18.73273316 1.14981536-92.42473755 0-165.40037842-69.93801727-165.40037842-156.01497803 0-14.39215851 2.23041687-28.19772949 5.99478608-41.36826324-5.99478608-0.49401398-12.00860596-0.74404908-18.13576355-0.74404908zM723.99960785 215.48067169l14.63440703-49.35121765-53.34658813 29.60017548c-19.50879364-4.92456665-38.98644104-9.85086364-58.36286315-9.85086366-92.55537872 0-165.54226685 64.11626586-165.54226685 143.04689484 0 78.85795441 72.98515777 143.10918732 165.54226685 143.10918732 87.36866455 0 165.21955719-64.23652496 165.21955718-143.10918732-0.00865173-44.41453857-29.07501526-83.79463348-68.14364776-113.44844971zM680.23048858 393.1059494c-9.58698578 0-19.24664612-9.9105606-19.24664612-19.76142426 0-9.88979644 9.65792999-19.67836762 19.24664612-19.67836761 14.63354187 0 24.41432648 9.787706 24.41432648 19.67836761-0.00778656 9.85086364-9.78078461 19.76142426-24.41432648 19.76142426zM573.21200714 393.1059494c-9.63630066 0-19.41795044-9.9105606-19.41795045-19.76142426 0-9.88979644 9.78078461-19.67836762 19.41795045-19.67836761 14.76418305 0 24.36328125 9.787706 24.36328125 19.67836761 0 9.85086364-9.59736786 19.76142426-24.36328125 19.76142426z"  horiz-adv-x="1025" />

    
    <glyph glyph-name="http" unicode="&#58936;" d="M917.35 635.92c17.599 60.979 23.115 179.976-86.125 194.728-87.812 11.906-191.709-46.636-246.475-82.932-18.005 2.439-36.822 4.123-56.858 4.355-142.344 1.858-234.8-46.635-313.029-149.022-28.863-37.633-54.533-101.632-62.548-174.052 40.421 68.762 161.219 192.754 290.961 243.744 0 0-194.787-139.092-290.206-337.829l-0.232-0.231c0.116-0.988 0.116-1.917 0.232-2.963-4.065-9.059-8.363-18.003-12.137-27.527-95.070-233.579-17.306-334.631 53.777-353.391 65.51-17.19 157.792 14.809 231.085 93.561 125.56-29.504 248.797 3.659 295.721 29.327 88.218 48.319 147.978 133.689 162.206 221.502h-240.55c0 0-10.106-77.706-139.092-77.706-118.882 0-123.935 137.639-123.935 137.639h511.011c0 0 9.641 148.269-63.652 247.114-40.652 54.882-96.289 103.201-173.762 129.335 23.753 17.422 64.581 44.66 99.078 53.604 65.393 17.075 110.227 6.969 138.337-40.653 38.156-64.754-21.080-216.217-21.080-216.217s28.921 43.847 47.272 107.614zM389.382 54.697c-101.111-82.352-184.972-73.291-217.321-23.694-27.992 43.208-33.044 120.972-0.173 226.902 15.391-41.060 39.433-80.784 75.267-116.093 43.614-43.035 92.516-70.388 142.228-87.114zM385.722 482.251c0 0 5.111 97.509 111.1 106.394 92.574 7.666 140.37-32.754 154.656-111.215l-265.757 4.82z"  horiz-adv-x="1024" />

    
    <glyph glyph-name="qianbao" unicode="&#58880;" d="M930.3908048 400.55172375l-28.13793094 0L902.25287386 622.34482781c0 31.44827625-24.82758656 56.27586187-56.27586188 56.27586188L845.97701104 734.89655156c0 18.20689688-4.9655175 33.10344844-16.55172374 43.0344825-16.55172375 14.89655156-38.06896594 13.24137938-39.72413813 13.24137938-1.65517219 0-19.86206906-1.65517219-52.9655175-4.9655175l-8.27586188 24.82758656c-9.93103406 28.13793094-43.0344825 43.0344825-71.17241343 33.10344844L404.04597698 749.79310313c-119.17241344-13.24137938-233.37931031-24.82758656-281.37931031-29.79310313C81.28735636 715.0344825 68.04597698 665.3793103099999 68.04597698 637.24137938c0 0 0 0 0-1e-8l0 0 0-625.65517218c0-31.44827625 24.82758656-56.27586187 56.27586188-56.27586188l723.31034437 0c31.44827625 0 56.27586187 24.82758656 56.27586188 56.27586188L903.90804605 233.37931031000005l28.13793093 0c14.89655156 0 28.13793094 13.24137938 28.13793094 28.13793094l0 110.89655156C956.87356354 387.31034438 945.28735636 400.55172375 930.3908048 400.55172375M793.01149448 761.3793103099999c0 0 11.58620719 1.65517219 18.20689688-4.9655175 4.9655175-4.9655175 8.27586188-11.58620719 8.27586187-21.51724125l0-56.27586187-43.0344825 0-28.13793094 79.44827625C774.80459761 759.72413813 791.3563223 761.3793103099999 793.01149448 761.3793103099999M665.56321823 816c14.89655156 4.9655175 29.79310312-1.65517219 36.41379282-16.55172375l44.68965562-120.82758656-84.41379281 0c-11.58620719 33.10344844-43.0344825 56.27586187-77.79310313 56.27586187-36.41379281 0-67.86206906-23.17241344-77.79310312-56.27586187l-215.17241344 0L665.56321823 816zM630.80459761 678.6206896900001l-96 0c9.93103406 16.55172375 28.13793094 28.13793094 48 28.13793093C602.66666667 706.75862062 620.87356354 695.17241344 630.80459761 678.6206896900001M124.32183886 691.8620690600001c33.10344844 3.31034438 96 9.93103406 170.48275875 18.20689688l-87.72413813-31.44827625L124.32183886 678.6206896900001c-6.62068969 0-13.24137938-1.65517219-18.20689688-3.31034438C109.42528729 683.58620719 116.04597698 691.8620690600001 124.32183886 691.8620690600001M874.11494292 11.586207189999982c0-14.89655156-13.24137938-28.13793094-28.13793094-28.13793094L124.32183886-16.55172374999995c-14.89655156 0-28.13793094 13.24137938-28.13793094 28.13793094l0 612.41379281c0 14.89655156 13.24137938 28.13793094 28.13793094 28.13793094l723.31034437 0c14.89655156 0 28.13793094-13.24137938 28.13793094-28.13793094L875.77011511 400.55172375 652.32183886 400.55172375c-14.89655156 0-28.13793094-13.24137938-28.13793094-28.13793094l0-110.89655156c0-14.89655156 13.24137938-28.13793094 28.13793094-28.13793094l221.79310312 0L874.11494292 11.586207189999982zM930.3908048 274.75862063c0-8.27586188-6.62068969-13.24137938-13.24137938-13.24137938L665.56321823 261.51724125c-8.27586188 0-13.24137938 6.62068969-13.24137937 13.24137937l0 82.75862063c0 8.27586188 6.62068969 13.24137938 13.24137937 13.24137938l249.93103406 0c8.27586188 0 13.24137938-6.62068969 13.24137938-13.24137938L928.73563261 274.75862063zM706.94252855 344.27586188c-14.89655156 0-28.13793094-13.24137938-28.13793094-28.13793094 0-14.89655156 13.24137938-28.13793094 28.13793093-28.13793094 14.89655156 0 28.13793094 13.24137938 28.13793094 28.13793094C735.08045948 332.68965562999995 723.49425323 344.27586188 706.94252855 344.27586188M804.59770073 567.72413812l28.13793094 1e-8c8.27586188 0 13.24137938 6.62068969 13.24137937 13.24137937 0 8.27586188-6.62068969 13.24137938-13.24137937 13.24137938L804.59770073 594.20689687c-8.27586188 0-13.24137938-6.62068969-13.24137937-13.24137937C791.3563223 574.34482781 796.32183886 567.72413812 804.59770073 567.72413812M721.83908011 567.72413812l28.13793093 1e-8c8.27586188 0 13.24137938 6.62068969 13.24137938 13.24137937 0 8.27586188-6.62068969 13.24137938-13.24137938 13.24137938L721.83908011 594.20689687c-8.27586188 0-13.24137938-6.62068969-13.24137938-13.24137937C706.94252855 574.34482781 713.56321823 567.72413812 721.83908011 567.72413812M637.42528729 567.72413812l28.13793094 1e-8c8.27586188 0 13.24137938 6.62068969 13.24137938 13.24137937 0 8.27586188-6.62068969 13.24137938-13.24137938 13.24137938l-28.13793093 0c-8.27586188 0-13.24137938-6.62068969-13.24137938-13.24137938C624.18390792 574.34482781 630.80459761 567.72413812 637.42528729 567.72413812M582.80459761 595.8620690600001l-28.13793094 0c-8.27586188 0-13.24137938-6.62068969-13.24137938-13.24137937 0-8.27586188 6.62068969-13.24137938 13.24137938-13.24137938l28.13793094 0c8.27586188 0 13.24137938 6.62068969 13.24137937 13.24137938C596.04597698 589.24137938 589.4252873 595.8620690600001 582.80459761 595.8620690600001M498.39080479 595.8620690600001l-28.13793093 0c-8.27586188 0-13.24137938-6.62068969-13.24137938-13.24137937 0-8.27586188 6.62068969-13.24137938 13.24137938-13.24137938l28.13793093 0c8.27586188 0 13.24137938 6.62068969 13.24137938 13.24137938C513.28735636 589.24137938 506.66666667 595.8620690600001 498.39080479 595.8620690600001M415.63218417 595.8620690600001l-28.13793094 0c-8.27586188 0-13.24137938-6.62068969-13.24137937-13.24137937 0-8.27586188 6.62068969-13.24137938 13.24137937-13.24137938l28.13793094 0c8.27586188 0 13.24137938 6.62068969 13.24137938 13.24137938C428.87356354 589.24137938 423.90804604 595.8620690600001 415.63218417 595.8620690600001M332.87356354 595.8620690600001l-28.13793093 0c-8.27586188 0-13.24137938-6.62068969-13.24137938-13.24137937 0-8.27586188 6.62068969-13.24137938 13.24137938-13.24137938l28.13793093 0c8.27586188 0 13.24137938 6.62068969 13.24137938 13.24137938C346.11494292 589.24137938 339.49425323 595.8620690600001 332.87356354 595.8620690600001M248.4597698 595.8620690600001l-28.13793094 0c-8.27586188 0-13.24137938-6.62068969-13.24137938-13.24137937 0-8.27586188 6.62068969-13.24137938 13.24137938-13.24137938l28.13793093 0c8.27586188 0 13.24137938 6.62068969 13.24137938 13.24137938C263.3563223 589.24137938 256.73563261 595.8620690600001 248.4597698 595.8620690600001M165.70114917 595.8620690600001L137.56321823 595.8620690600001c-8.27586188 0-13.24137938-6.62068969-13.24137937-13.24137937 0-8.27586188 6.62068969-13.24137938 13.24137937-13.24137938l28.13793094 0c8.27586188 0 13.24137938 6.62068969 13.24137938 13.24137938C178.94252855 589.24137938 172.32183886 595.8620690600001 165.70114917 595.8620690600001M804.59770073 39.72413813000003l28.13793094 0c8.27586188 0 13.24137938 6.62068969 13.24137937 13.24137937 0 8.27586188-6.62068969 13.24137938-13.24137937 13.24137938L804.59770073 66.20689687000004c-8.27586188 0-13.24137938-6.62068969-13.24137937-13.24137937C791.3563223 44.68965562999995 796.32183886 39.72413813000003 804.59770073 39.72413813000003M721.83908011 39.72413813000003l28.13793093 0c8.27586188 0 13.24137938 6.62068969 13.24137938 13.24137937 0 8.27586188-6.62068969 13.24137938-13.24137938 13.24137938L721.83908011 66.20689687000004c-8.27586188 0-13.24137938-6.62068969-13.24137938-13.24137937C706.94252855 44.68965562999995 713.56321823 39.72413813000003 721.83908011 39.72413813000003M624.18390792 52.96551750000003c0-8.27586188 6.62068969-13.24137938 13.24137938-13.24137938l28.13793093 0c8.27586188 0 13.24137938 6.62068969 13.24137938 13.24137938 0 8.27586188-6.62068969 13.24137938-13.24137938 13.24137938l-28.13793093 0C630.80459761 66.20689687000004 624.18390792 61.24137938000001 624.18390792 52.96551750000003M582.80459761 66.20689687000004l-28.13793094 1e-8c-8.27586188 0-13.24137938-6.62068969-13.24137938-13.24137938 0-8.27586188 6.62068969-13.24137938 13.24137938-13.24137937l28.13793094 0c8.27586188 0 13.24137938 6.62068969 13.24137937 13.24137937C596.04597698 61.24137938000001 589.4252873 66.20689687000004 582.80459761 66.20689687000004M498.39080479 66.20689687000004l-28.13793093 1e-8c-8.27586188 0-13.24137938-6.62068969-13.24137938-13.24137938 0-8.27586188 6.62068969-13.24137938 13.24137938-13.24137937l28.13793093 0c8.27586188 0 13.24137938 6.62068969 13.24137938 13.24137937C513.28735636 61.24137938000001 506.66666667 66.20689687000004 498.39080479 66.20689687000004M415.63218417 66.20689687000004l-28.13793094 1e-8c-8.27586188 0-13.24137938-6.62068969-13.24137937-13.24137938 0-8.27586188 6.62068969-13.24137938 13.24137937-13.24137937l28.13793094 0c8.27586188 0 13.24137938 6.62068969 13.24137938 13.24137937C428.87356354 61.24137938000001 423.90804604 66.20689687000004 415.63218417 66.20689687000004M332.87356354 66.20689687000004l-28.13793093 1e-8c-8.27586188 0-13.24137938-6.62068969-13.24137938-13.24137938 0-8.27586188 6.62068969-13.24137938 13.24137938-13.24137937l28.13793093 0c8.27586188 0 13.24137938 6.62068969 13.24137938 13.24137937C346.11494292 61.24137938000001 339.49425323 66.20689687000004 332.87356354 66.20689687000004M248.4597698 66.20689687000004l-28.13793094 1e-8c-8.27586188 0-13.24137938-6.62068969-13.24137938-13.24137938 0-8.27586188 6.62068969-13.24137938 13.24137938-13.24137937l28.13793093 0c8.27586188 0 13.24137938 6.62068969 13.24137938 13.24137937C263.3563223 61.24137938000001 256.73563261 66.20689687000004 248.4597698 66.20689687000004M165.70114917 66.20689687000004L137.56321823 66.20689687000004c-8.27586188 0-13.24137938-6.62068969-13.24137937-13.24137937 0-8.27586188 6.62068969-13.24137938 13.24137937-13.24137937l28.13793094 0c8.27586188 0 13.24137938 6.62068969 13.24137938 13.24137937C178.94252855 61.24137938000001 172.32183886 66.20689687000004 165.70114917 66.20689687000004"  horiz-adv-x="1024" />

    
    <glyph glyph-name="qidong" unicode="&#58896;" d="M512.00085166 715.81102177c180.12247889 0 326.73318493-146.61070604 326.73318493-326.73403659s-146.60985439-326.73403659-326.73318493-326.73403659c-180.1241822 0-326.73318493 146.61070604-326.73318495 326.73403659 0 180.12333055 146.60985439 326.73403659 326.73318495 326.73403659M512.00085166 766.07825521c-208.39912842 0-377.00127003-168.60384492-377.00127004-377.00127003s168.60299327-377.00127003 377.00127004-377.00127004c208.3974251 0 377.00127003 168.60384492 377.00127003 377.00127004s-168.60384492 377.00127003-377.00127003 377.00127003v0zM676.41455396 414.21102772l-201.06723047 146.6115577c-8.37773029 5.23597498-17.8021446 5.23597498-26.1798749 0-7.33019463-4.18929097-12.56702127-14.66038928-12.56702128-25.13404254v-293.2231154c0-10.47280161 5.23597498-20.94389991 12.56702128-25.1331909 4.18843933-3.14175532 8.37773029-4.18929097 12.56702128-4.18929098 4.18929097 0 9.4244143 1.046684 13.61285362 4.18929098l201.06808212 146.61070604c7.3310463 5.23597498 11.52033726 14.65953763 11.52033727 25.1331909-0.00085166 10.47365327-4.19099429 19.89891922-11.52118892 25.13404254z"  horiz-adv-x="1024" />

    
    <glyph glyph-name="sousuo" unicode="&#58888;" d="M430.080 834.56c-192.041 0-348.16-156.119-348.16-348.16s156.119-348.16 348.16-348.16c75.971 0 146.234 24.497 203.52 65.92l269.44-268.8 57.6 57.6-266.24 266.88c52.312 60.927 83.84 140.108 83.84 226.56 0 192.041-156.119 348.16-348.16 348.16zM430.080 793.6c169.904 0 307.2-137.296 307.2-307.2s-137.296-307.2-307.2-307.2c-169.904 0-307.2 137.296-307.2 307.2 0 169.904 137.296 307.2 307.2 307.2z"  horiz-adv-x="1024" />

    
    <glyph glyph-name="gongzi" unicode="&#58894;" d="M702.81614303 366.68074378999995c-107.19861053 0-194.41535064-87.21583168-194.41535064-194.41625908 0-107.2031527 87.21583168-194.41535064 194.41535064-194.41535065 107.19951896 0 194.41625908 87.21219795 194.41625909 194.41535065 0.00090843 107.19951896-87.21492325 194.41625908-194.41625909 194.41625908v0zM702.81614303 23.420625679999944c-82.07592339 0-148.84930962 66.76884407-148.84930961 148.84385903 0 82.07683182 66.7724778 148.84930962 148.84930961 148.84930962 82.07683182 0 148.84567588-66.77156937 148.8456759-148.84930962 0.00090843-82.07592339-66.76793564-148.84385902-148.8456759-148.84385903v0zM702.81614303 23.420625679999944zM471.84548843 36.439364780000005c-53.91271431 0.62409279-100.74601799 5.73674813-139.15815697 15.33433227-37.6208947 9.41226402-68.33316398 23.36759651-91.28379021 41.4553862-21.36813766 16.86049805-36.85781182 37.74625831-47.34020873 63.87548813-11.0465332 27.50368744-16.64701652 61.69525132-16.64701652 101.62538018 0 31.34362953 6.01563675 63.87548813 17.88702621 96.71439673 11.70968857 32.41194557 28.58562996 63.75920884 50.15998169 93.14516739 21.47351577 29.24696846 46.4962754 55.02009292 74.35697662 76.60807114 25.18536896 19.4904087 51.66252823 34.70119423 78.71835869 45.21720314l0.84120803 0.30977532 167.9754371-0.33339455c27.00223297-10.49329811 53.46849106-25.7031752 78.66385276-45.18995018 27.8688771-21.57889389 52.88709458-47.35201836 74.35697663-76.61170487 6.22094238-8.46749473 12.00038681-17.1203096 17.43099335-25.89303748 24.3323513-4.34230499 47.47919883-12.07760353 68.92909538-22.74532059-44.75299439 99.53326126-131.35290917 186.79633141-230.40560989 221.42757637l-185.212026 0.25981155c-145.76154923-50.66779518-264.3482634-213.47607102-264.34826339-362.91041084 0-188.85665519 109.84396454-273.07375283 356.15440201-273.07375282 9.79834762 0 19.30145485 0.18077797 28.67102256 0.44967384-15.23713005 15.02455696-28.62196724 31.91685013-39.74844245 50.33440064v0zM471.84548843 36.439364780000005zM335.01655113 741.03648949l-0.21711524-0.77398407 58.60022346-88.02251931h179.12643996l58.95996255 87.64279473-0.75944916 3.53561737 0.35247162 1.49164535c0.34066201 1.47165985 0.67314812 2.86973671 0.67314811 4.19877274 0 9.4940229-4.66752365 17.8525058-11.87865692 21.28001976l-1.68877509 0.80577919-0.51508095 1.22002418c-10.62138703 2.59539024-75.15003777 17.73622651-133.0226072 17.73622651h-1.66969803c-57.2784549-0.27071274-127.74734253-16.16009697-134.75317016-17.81798539l-2.16933564-1.92042526c-7.27381508-3.4284224-11.96768325-11.78690529-11.96768325-21.30454743 0-1.31722641 0.30977531-2.67987442 0.79487801-4.94550384l0.13535636-3.1250061zM409.12461738 732.52266472c28.45754105 4.52671669 53.38309845 6.87501342 74.10897469 6.98311684h1.4216961c21.00113113 0 45.36800285-2.2192994 72.43655136-6.58158989l7.5018315-1.22002419-19.20334419-28.82182228h-124.84944442l-18.93717362 28.44300614 7.52272545 1.19640495zM409.12461738 732.52266472zM797.38754868 200.25509171c2.46275917 2.82340668 4.74019821 6.35993248 6.82959182 10.46967888 2.09121048 4.08612717 1.44894905 7.81705742-1.81686401 11.09286323l-5.9148008 6.18642197c-3.09502784 3.28034797-5.09812042 5.08994453-5.91480079 5.55415329-4.19604744 2.81613922-8.10775567 3.27308052-11.8296016 1.18187003-3.73728928-1.99945885-7.46821953-4.91098343-11.19369919-8.64191367-9.56306374-9.46676994-18.92899773-18.65919342-28.29856544-27.75168938-9.27599922-9.00982865-18.1050499-17.65900978-26.38904136-25.85215805-2.90879928-2.90425713-6.18551354-4.63936226-9.64118889-5.26708878-3.55106072-0.54233391-6.37628426 0.53870018-8.46295258 3.45840065l-5.82940819 6.09285347c-2.72257072 2.9206089-5.55051956 6.00655243-8.45931885 9.27599922l-8.37120094 9.56397217c-2.72983819 3.09502784-4.63572853 5.27889839-5.92115982 6.44895882-2.45276642 2.09938637-5.27253937 3.3775502-8.36302505 4.00891044-3.09502784 0.64316986-6.3717421-0.44967384-9.64028047-3.3693743l-3.09593627-2.81613923c-1.73147141-1.35992272-3.36574059-2.99691719-5.01181938-4.91552559-1.63426918-1.82049774-3.26581307-3.45476692-4.99637604-4.9073497l-3.09502785-2.73074661c-6.19096413-6.64608856-5.36792473-14.19606697 2.54815178-22.83343849 2.45276642-2.92151734 5.73220596-6.47712021 9.91190163-10.83850227 4.09793678-4.268722 8.46295258-8.90808426 13.00692947-13.82724359 4.63663696-4.91098343 9.19151505-9.73839111 13.74366783-14.47495559 4.5439769-4.72202957 8.46749473-8.54471146 11.82869317-11.37175186 3.27671425-3.35756469 7.83250076-4.81741494 13.65009933-4.63663697 5.82214073 0.17805268 10.19442398 1.90952407 13.01419693 5.19078049 5.81396484 5.36792473 12.47186302 11.82596786 19.93099823 19.47224007 7.44823402 7.54816154 15.28527695 15.28800225 23.28674607 23.11141868 8.09140389 7.73166481 16.00748039 15.46696335 23.65829475 23.10869339 7.64718063 7.55361213 14.6539167 14.28872704 20.83488807 20.01639085v0 0zM481.97178001 196.35155938000003c0 16.61885513 1.82594833 32.80893036 5.25800446 48.39762359-4.80015473-1.74600631-10.5241848-2.6253685-17.17754082-2.6253685-26.88504524 0-42.70720551 14.55943977-47.46829766 43.6210881l-51.59348739-13.47204666c10.43425003-46.20557716 37.436483-71.59897705 81.06120484-76.07300469v-39.66577514h33.36125702v0.49872917c-2.2592704 12.76528656-3.4429573 25.90393867-3.44295731 39.31784569zM415.30558876 331.49353843999995c10.31887917-6.30542656 24.64939408-12.5536219 42.99427002-18.91809655 20.40974189-7.22294288 33.58927345-13.18498215 39.49589836-17.88702621 1.78961106-1.40806961 3.30760094-3.02962074 4.55851181-4.85647751 8.97349136 19.52402069 20.66501129 37.53913582 34.59944985 53.55297523-2.44822426 1.83412422-5.0263543 3.52834992-7.74529129 5.07268434-11.23730393 6.41898056-26.83144775 13.29762771-46.60347039 20.52057059-18.06053672 6.59249107-29.8101963 12.15482026-35.31166054 16.62975633-5.50418953 4.52308296-8.25492165 10.94478882-8.25492164 19.31508132 0 8.25401322 2.86610298 15.24893967 8.59921738 21.04110215 5.67497475 5.78580345 13.2431218 8.65735702 22.64357619 8.65735702 18.80181725 0 32.61906806-12.95696572 41.56076432-38.81184906l46.03115822 18.85995689c-11.00474533 37.71900536-35.19719811 58.81643028-72.45835373 63.29045792v30.78131011h-33.36579918v-30.78131011c-24.70844216-3.49292107-42.76534516-13.00965477-54.28517144-28.6037986-11.46532036-15.59414383-17.25566597-33.18956337-17.25566597-52.67997208 0-14.85104644 3.21039871-27.9197493 9.68842736-39.15523635 6.42079742-11.17825585 14.79199837-19.83561287 25.1099691-26.026577z"  horiz-adv-x="1024" />

    
    <glyph glyph-name="xiugaimima" unicode="&#58921;" d="M505.45866666666666 309.8693333333333c-27.514 0-49.823-22.299-49.823-49.82 0-20.549 12.449-38.191 30.212-45.807v-121.378h39.222v121.378c17.764 7.615 30.207 25.258 30.208 45.807 0 27.52-22.299 49.82-49.82 49.82zM727.2956666666666 484.7153333333333h-433.211c-0.865 0-1.725-0.019-2.586-0.033v188.897c0 72.086 58.575 119.364 127.283 119.364h165.319c26.205 0 50.469-1.757 74.363-14.419 37.594-19.918 61.415-61.048 61.415-103.305v-88.308l39.221 21.467v58.979c0 73.641-42.862 137.123-114.44 158.938-22.174 6.766-45.455 5.87-68.327 5.87h-90.096c-57.448 0-116.137 6.223-166.237-28.045-35.944-24.579-60.035-64.33-66.046-107.289-2.249-16.104-1.675-32.365-1.675-48.581v-169.201c-66.271-18.346-115.071-79.183-115.071-151.209v-231.518c0-86.503 70.376-156.88 156.88-156.88h433.212c86.502 0 156.879 70.376 156.879 156.88v231.518c-0.002 86.499-70.38 156.875-156.882 156.875zM844.9566666666666 327.8403333333333v-231.518c0-64.877-52.783-117.66-117.66-117.66h-433.212c-64.878 0-117.661 52.783-117.661 117.66v231.518c0 64.872 52.783 117.656 117.661 117.656h433.212c64.878 0 117.661-52.783 117.66-117.656v0z"  horiz-adv-x="1024" />

    
    <glyph glyph-name="yue" unicode="&#58928;" d="M512 771.9238266c-213.89074859 0-383.90596161-170.01521302-383.90596161-383.90596161s170.01521302-383.90596161 383.90596161-383.90596161c213.89074859 0 383.90596161 170.01521302 383.90596161 383.90596161 0 213.89074859-170.01521302 383.90596161-383.90596161 383.90596161zM671.04654541 393.50219879c0-5.4843338 0-10.9686676 0-21.9373352s0-16.45300141 0-21.93733521h-126.1405426v-60.32853699h126.1405426c0-5.4843338 0-10.9686676 0-21.9373352s0-16.45300141 0-21.93733521h-126.1405426v-104.20320739c-5.4843338 0-10.9686676 0-16.4530014 0s-10.9686676 0-16.45300141 0c-5.4843338 0-10.9686676 0-16.45300141 0s-10.9686676 0-16.4530014 0v104.20320739h-120.6562088c0 5.4843338 0 10.9686676 0 21.93733521 0 5.4843338 0 5.4843338 0 10.9686676 0 5.4843338 0 5.4843338 0 10.9686676h120.6562088v60.32853699h-120.6562088c0 5.4843338 0 10.9686676 0 21.93733521 0 5.4843338 0 5.4843338 0 10.9686676 0 5.4843338 0 5.4843338 0 10.9686676h93.23453979l-120.65620879 213.8907486c5.4843338 0 10.9686676 0 16.4530014 0s10.9686676 0 21.93733521 0c5.4843338 0 10.9686676 0 16.45300139 0s10.9686676 0 16.45300141 0l109.6875412-197.43774719 104.20320739 197.43774719c5.4843338 0 10.9686676 0 16.45300141 0s10.9686676 0 16.45300141 0 10.9686676 0 16.4530014 0 10.9686676 0 16.45300141 0l-120.65620881-213.8907486h109.6875412z"  horiz-adv-x="1024" />

    
    <glyph glyph-name="jia" unicode="&#58917;" d="M921.976884 565.393303c-22.243607 52.591799-54.083779 99.81738-94.633311 140.366911-40.549531 40.549531-87.776136 72.38868-140.367935 94.633311-54.462402 23.035646-112.299669 34.715663-171.907255 34.715663S397.623531 823.429171 343.161129 800.394548c-52.591799-22.24463-99.81738-54.083779-140.367935-94.633311-40.549531-40.549531-72.38868-87.776136-94.633311-140.366911-23.035646-54.462402-34.715663-112.300692-34.715663-171.908278s11.680017-117.445876 34.715663-171.907255c22.24463-52.591799 54.083779-99.818403 94.633311-140.367935s87.776136-72.38868 140.367935-94.633311c54.462402-23.035646 112.300692-34.715663 171.908278-34.715663s117.445876 11.680017 171.907255 34.715663c52.591799 22.243607 99.818403 54.083779 140.367935 94.633311s72.38868 87.776136 94.633311 140.367935c23.035646 54.462402 34.715663 112.299669 34.715663 171.907255S945.01253 510.930901 921.976884 565.393303zM515.069407 3.027196c-215.299531 0-390.458853 175.158299-390.458853 390.45783 0 215.299531 175.159322 390.458853 390.458853 390.458853 215.299531 0 390.45783-175.159322 390.45783-390.458853C905.527237 178.185494 730.367915 3.027196 515.069407 3.027196zM566.846654 625.378489 474.637556 625.378489 474.637556 442.046021 288.04995 442.046021 288.04995 348.753241 474.637556 348.753241 474.637556 165.418726 566.846654 165.418726 566.846654 348.753241 752.348532 348.753241 752.348532 442.046021 566.846654 442.046021Z"  horiz-adv-x="1024" />

    
    <glyph glyph-name="jian" unicode="&#58918;" d="M921.976884 565.393303c-22.243607 52.591799-54.083779 99.81738-94.633311 140.366911-40.549531 40.549531-87.776136 72.38868-140.367935 94.633311-54.462402 23.035646-112.299669 34.715663-171.907255 34.715663S397.623531 823.429171 343.161129 800.394548c-52.591799-22.24463-99.81738-54.083779-140.367935-94.633311-40.549531-40.549531-72.38868-87.776136-94.633311-140.366911-23.035646-54.462402-34.715663-112.300692-34.715663-171.908278s11.680017-117.445876 34.715663-171.907255c22.24463-52.591799 54.083779-99.818403 94.633311-140.367935s87.776136-72.38868 140.367935-94.633311c54.462402-23.035646 112.300692-34.715663 171.908278-34.715663s117.445876 11.680017 171.907255 34.715663c52.591799 22.243607 99.818403 54.083779 140.367935 94.633311s72.38868 87.776136 94.633311 140.367935c23.035646 54.462402 34.715663 112.299669 34.715663 171.907255S945.01253 510.930901 921.976884 565.393303zM515.069407 3.027196c-215.299531 0-390.458853 175.158299-390.458853 390.45783 0 215.299531 175.159322 390.458853 390.458853 390.458853 215.299531 0 390.45783-175.159322 390.45783-390.458853C905.527237 178.185494 730.367915 3.027196 515.069407 3.027196zM288.04995 442.046021l464.298582 0 0-93.292779-464.298582 0 0 93.292779Z"  horiz-adv-x="1024" />

    
    <glyph glyph-name="tanhao" unicode="&#58883;" d="M511.28 831.438c-246.915 0-447.097-200.152-447.097-447.097 0-246.916 200.182-447.097 447.097-447.097 246.916 0 447.097 200.181 447.097 447.097 0 246.945-200.181 447.097-447.097 447.097zM511.28-20.178c-223.428 0-404.519 181.121-404.519 404.519 0 223.428 181.090 404.519 404.519 404.519 223.398 0 404.52-181.090 404.52-404.519-0.001-223.398-181.123-404.519-404.52-404.519zM511.28 646.431c-25.536 0-46.251-20.716-46.251-46.251v-277.508c0-25.534 20.717-46.25 46.251-46.25 25.536 0 46.251 20.717 46.251 46.25l0 277.509c0 25.535-20.716 46.25-46.251 46.25zM511.28 214.751c-25.536 0-46.251-20.716-46.251-46.25s20.717-46.251 46.251-46.251c25.536 0 46.251 20.717 46.251 46.251s-20.716 46.25-46.251 46.25z"  horiz-adv-x="1024" />

    
    <glyph glyph-name="zhongbao" unicode="&#58914;" d="M334.16089556 739.89847677c4.3721007-7.5745649 1.78135643-17.25681406-5.79320846-21.62891388-7.57807318-4.36742183-17.26149204-1.77433814-21.63125333 5.79905703-4.36508241 7.57690347-1.78018672 17.25798377 5.79554791 21.63008361C320.10654572 750.0684648 329.79230401 747.47304168 334.16089556 739.89847677zM207.3465897 668.52960988c5.03294518-7.146478 3.32176729-17.02522618-3.82588042-22.06050994-7.14998627-5.03879289-17.0263959-3.32761498-22.06284937 3.82237129-5.0399626 7.14998627-3.32410671 17.02756474 3.82471072 22.06284936C192.42904863 677.38843549 202.3124748 675.68193559 207.3465897 668.52960988zM815.55512205 686.40633101c-66.64587612 37.08214867-132.91162016 75.47662945-196.98897486 114.20094807C548.75991399 842.81360459 476.6167481 842.81360459 406.64208727 800.9265894600001c-31.12870057-18.59370844-62.56735383-37.03536355-94.11127531-55.20917223l16.54684502-27.03029487c31.45385954 18.13053185 62.80245083 36.53008069 93.82237491 55.07817288 29.93684124 17.94689967 59.98830584 27.051348 89.48887304 27.051348 29.61636027 0 59.82338736-9.21322485 89.82104943-27.3262127 64.40485308-38.87754081 130.99692495-77.48723433 197.96211231-114.67932923 61.40707505-34.24812025 90.69125894-85.18578117 89.43506965-155.64584058-1.42110777-75.3666841-1.52871457-152.37436755-0.38130179-228.82413531 1.09477996-70.45889056-28.29701073-121.28777409-89.92514708-155.21073626-64.46216477-35.66571975-131.15833514-74.05318225-198.17849476-114.08515412-59.9929847-35.99438698-119.4374097-35.77566511-179.4245467 0.43393547-67.62369156 40.57585272-134.15377375 79.18788566-197.84631838 114.63722297-61.51702042 34.24344139-90.75207976 85.06764781-89.44091735 155.63882315 1.41409035 75.63803966 1.52637514 152.64689282 0.32515896 228.83115275-0.91231663 61.99306301 21.82190464 108.81360365 69.40036915 142.35643286l-18.69078783 25.52614257c-55.7472045-39.56879614-83.44887043-96.06807679-82.34239504-168.42879571C104.30397168 428.23953041 104.19636488 351.67162928000005 102.77642682 276.30494518c-1.52286686-82.13069058 34.02705894-143.97754882 105.68716569-183.89489647 63.37206366-35.22827514 129.57347774-73.62509535 196.87318093-114.08632385 35.12066919-21.16106016 70.89282516-31.9591424 106.33982303-31.9591424 35.23646314 0 70.78521837 10.57936036 105.69301427 31.5228675 66.74646463 39.80272257 133.06250293 78.09310657 197.20067845 113.542443 71.82268579 39.5933584 107.59016376 101.21330677 106.27900135 183.34867621-1.13688622 76.12460882-1.03278856 152.74865105 0.38714949 227.84982815C922.71018149 584.6444645500001 887.15557681 646.48547421 815.55512205 686.40633101zM422.7585051 353.97113455c39.28340486-19.10132987 63.40949193-33.67733772 72.40750403-43.78182606 8.97228013-10.10331863 10.10448835-21.0487745 3.36738269-32.83519961-6.73476537-11.78759483-12.36539478-12.62973293-16.838084-2.52524459-4.4984212 10.10331863-11.23435628 20.75870523-20.20546669 31.99423123-8.99801211 11.20745458-22.46988314 24.12725764-40.41444252 38.72899661-8.99801211-32.57320091-21.8909126-59.77777197-38.7289966-81.66868457-16.83925372-21.8909126-37.62486065-40.67644123-62.30535597-56.41038842l-5.05048917 5.05165888c32.54629921 28.07361 55.83141874 61.72404601 69.88108973 101.03435259 14.02393901 39.28223515 22.15408102 81.37978414 24.41615718 126.29264786l40.41444252-20.2066364-15.15497752-10.10331864L422.7585051 353.97113455zM508.63788016 564.45888129c-25.83726582-51.64879965-54.46294466-89.53565816-85.87937505-113.66291581-31.44099354-24.15298962-65.67039923-41.83438144-102.71745907-53.04300573l-3.36738269 6.73476537c37.04589012 13.47187104 71.27529667 36.46692044 102.71745906 69.04012135 31.41526156 32.54746892 56.67355684 76.32812527 75.77488672 131.34430761l37.04705984-21.89091259-16.83925372-10.10331864c13.47187104-30.31112475 38.15119664-59.77894081 74.09178022-88.40461964 35.91485161-28.62567884 74.09294995-44.62279445 114.5050539-47.99134686l0-6.73593508c-22.46988314-4.49959091-34.80954594-12.91863247-37.04589011-25.25829529-26.94257234 11.20862429-54.72728194 30.02105462-83.35296077 56.41038842C554.94495081 487.26288593 529.94865337 521.78353146 508.63788016 564.45888129zM562.52302399 446.5864447l38.7289966-20.2066364-13.47187103-13.47070131c4.47268921-29.2046485 13.47187104-57.25369623 26.94140264-84.19509887 13.47187104-26.94257234 28.89001611-47.72817843 46.30824036-62.30535598 17.39132168-14.60173982 33.94167585-24.12608792 49.67562304-28.62684854l0-6.73476538c-17.97029223-2.23634417-29.20581821-8.97344984-33.67850742-20.20780611-46.04390222 37.04705983-76.90709494 95.40372316-92.61531014 175.12613282-6.73476537-55.01501263-21.88974288-95.42828543-45.46493256-121.23981927-23.57401909-25.81036412-54.46294466-45.46493255-92.61414044-58.93680271l-3.36855239 5.05048916c44.88596201 21.33884463 76.03922486 51.35872954 93.45627854 90.08889585C553.8139123 339.65946484999995 562.52302399 388.20170996 562.52302399 446.5864447z"  horiz-adv-x="1024" />

    
    <glyph glyph-name="tuichu" unicode="&#58902;" d="M512-11.738095240000007c-210.27041016 0-381.33017578 171.05976563-381.33017578 381.33017578 0 128.64023437 64.35 247.76982422 172.11005859 318.65976563 10.40976563 6.77988281 24.32988281 3.92958985 31.17041015-6.45029297 6.83964844-10.37988281 3.92958985-24.35976563-6.45029296-31.17041015-95.07041015-62.52011719-151.86005859-167.6100586-151.8600586-281.03994141 0.02988281-185.45976563 150.90029296-336.33017578 336.3600586-336.33017578 185.48964844 0 336.36005859 150.87041016 336.36005859 336.33017578 0 113.45976563-56.78964844 218.51982422-151.86005859 281.03994141-10.37988281 6.83964844-13.26005859 20.78964844-6.45029297 31.17041015 6.87041016 10.37988281 20.78964844 13.20029297 31.17041016 6.45029298 107.7899414-70.8899414 172.1399414-190.02041016 172.1399414-318.65976564-0.02988281-210.27041016-171.08964844-381.33017578-381.36005859-381.33017578zM512 462.41161179c-12.41982422 0-22.5 10.08017578-22.5 22.5v281.85029297c0 12.41982422 10.08017578 22.5 22.5 22.5s22.5-10.08017578 22.5-22.5v-281.85029297c0-12.41982422-10.08017578-22.5-22.5-22.5z"  horiz-adv-x="1024" />

    
    <glyph glyph-name="jiaqun" unicode="&#59013;" d="M512 765.37532959c-210.94137268 0-381.94720917-171.00497132-381.94720917-381.94720917s171.00497132-381.94720917 381.94720917-381.94720916 381.94720917 171.00497132 381.94720917 381.94720916-171.00497132 381.94720917-381.94720917 381.94720917zM238.77825928 209.26007538l82.83602142 25.26998291v5.37099609c0.95428619-0.16092224 1.8108078-0.56409301 2.81094818-0.56409301 9.70897522 0 17.5759964 7.86702118 17.5759964 17.5759964 0 9.70897522-7.86702118 17.5759964-17.5759964 17.57599639-1.00100555 0-1.85666198-0.40490112-2.81094818-0.56409301v5.98872985c-19.48024292 13.01739807-35.76626587 32.41112366-47.21596985 56.16964875-19.5036026 4.8354538-34.33699951 26.42325897-34.33699951 52.84565277 0 17.63136749 6.6073288 33.12921753 16.78176727 42.97662048 5.75340271 73.52502594 52.01335601 131.92509156 110.0768692 138.77553406l-12.22922515-30.75431672c-38.5694275-11.66513214-68.7267746-50.7839447-76.35933381-100.45095061 0.56409301 0.12112427 1.08492737 0.38240661 1.65767213 0.46632843v-30.12879639c-7.37214203-2.91822967-12.82532959-11.39779358-12.82532959-21.81707611 0-10.41149597 5.45232239-18.89105988 12.82532959-21.80928955v-4.04901123h5.24122009c11.75511017-33.49085999 34.4053482-59.40799255 62.21894073-70.63621217 2.02450562-6.2629898 16.35437164-8.49340668 16.35437164-17.2186798 0-2.81873474-0.05364075-5.66775055-0.12112426-8.50984497-0.72588043 0.11506805-1.40590668 0.39538422-2.12400055 0.52862091 0.38154145-2.10150604 0.65753174-4.24713592 0.65753173-6.46890106 0-15.93562775-10.3422821-36.70497895-24.63494567-41.5776352l2.06257324-4.98858947-80.22492828-24.63494569-20.64044037 20.63265381zM714.61494446 129.39419403l-151.49617768 67.55879058 2.17677613 5.28447877c-15.75048065 7.52354736-26.71309204 23.46696167-26.71309204 42.08203125 0 9.01424103 2.67252045 17.35451203 7.09615173 24.49824829 1.38168182 6.81237488 4.76018372 11.39087219 12.13059539 18.65486756 33.61111908 15.4537262 60.95838318 47.49801636 75.41110383 88.68891906h10.76275634v5.21007385c9.49441223 3.76523438 16.53086701 14.69756469 16.53086701 28.11294251 0 13.42143402-7.02780304 24.34597779-16.53086701 28.11294251v13.86526794c-3.22277069 88.35150146-60.25586243 158.89081421-130.70087127 158.89081421-63.87142182 0-116.97576141-57.87923126-128.77066956-134.52061158 0.70252075 0.15313568 1.36091766 0.48190155 2.07728119 0.59696961v-38.8289795c-9.49441223-3.76523438-16.53086701-14.68891296-16.530867-28.11294249 0-13.41451264 7.02780304-24.34597779 16.530867-28.11121217v-5.21007385h6.75267792c15.14918518-43.16003723 44.3358078-76.54967193 80.17907409-91.03353881 2.60417175-8.06601105 21.06697083-10.94876861 21.06697083-22.18304444 0-3.62853698-0.06834869-7.30206299-0.15313568-10.96953278-0.93871307 0.15400085-1.8108078 0.51045227-2.73394775 0.68867798 0.48968811-2.71058807 0.83921814-5.4843338 0.83921814-8.33507995 0-20.53315887-13.32972564-37.78904114-31.74667054-44.07712098l2.65002594-6.43169861-138.38014984-58.04794006-21.81707611 21.81707611 139.05931092 58.33085175v7.19564666c1.19220886-0.19985504 2.2684845-0.70944214 3.51260376-0.70944213 12.13751678 0 21.96934662 9.83875123 21.96934662 21.97886352s-9.83875123 21.97886352-21.96934662 21.97886353c-1.24498443 0-2.32212524-0.50266571-3.51260377-0.70944214v7.48721008c-24.35982055 16.271315-44.7026413 40.51779785-59.01866455 70.2096817-24.38404541 6.04237061-42.92384491 33.03058777-42.92384491 66.06204072 0 22.03856049 8.26586609 41.41065674 20.97612762 53.71774749 7.65505371 97.87879029 72.74550476 174.33502349 151.92443849 174.33502351 78.16927642 0 142.51048736-74.54766083 151.51175079-170.61564332 15.18725281-11.84076233 25.43696137-32.9483963 25.43696136-57.42934113 0-34.53685455-20.18968506-62.73890992-46.22361602-67.00161896v2.43719331c-13.45344544-28.45555115-32.43534851-51.98999634-55.17642975-68.45251465v-10.7480484c-1.18269195 0.19985504-2.2684845 0.70944214-3.50741272 0.70944213-12.13751678 0-21.97799835-9.83875123-21.97799836-21.97886352s9.83875123-21.97886352 21.97799836-21.97886353c1.24498443 0 2.32212524 0.50266571 3.50741272 0.70944215v-6.36334992l147.4160202-65.74019623-21.61722107-21.61722107zM764.58216553 188.63347779000003l-80.21714173 24.64359741 2.05392151 4.98858948c-14.29266357 4.87352143-24.63494568 25.64460297-24.63494567 41.57763518 0 2.22349548 0.27512512 4.36306915 0.65753173 6.46890107-0.72588043-0.12804566-1.40590668-0.41268768-2.12400055-0.52862091-0.06056214 2.84036408-0.12112427 5.6919754-0.12112426 8.50984497 0 8.72440795 14.33073121 10.95482483 16.35437164 17.21867981 27.81359253 11.22994996 50.46210022 37.1479477 62.21894073 70.63621215h5.24122009v4.04901123c7.37214203 2.91822967 12.82532959 11.3969284 12.82532959 21.80928955 0 10.41928253-5.45232239 18.89884644-12.82532959 21.81707612v30.12879638c0.57274475-0.09170837 1.10050049-0.34347381 1.65767213-0.46632843-7.63082886 49.67652282-37.78904114 88.78668365-76.35241242 100.46652375l-12.22922515 30.75431671c58.06437836-6.85130767 104.32519683-65.2513733 110.07686919-138.77553406 10.16665191-9.83875123 16.78176727-25.3383316 16.78176728-42.97662049-0.00692139-26.44575348-14.84204865-48.03355865-34.3439209-52.86987762-11.4522995-23.75592956-27.72880554-43.15225067-47.21596985-56.16964874v-5.98872986c-0.95428619 0.16092224-1.8108078 0.56409301-2.81094818 0.56409302-9.70897522 0-17.5759964-7.86702118-17.5759964-17.5759964s7.86702118-17.5759964 17.5759964-17.5759964c1.00100555 0 1.85666198 0.40490112 2.81094818 0.56409302v-5.3709961l82.83602142-25.26998291-20.64044037-20.63265381z"  horiz-adv-x="1024" />

    
    <glyph glyph-name="wangzhuan" unicode="&#59253;" d="M512 764.27460604C302.003912 764.27460604 131.72539396 593.996088 131.72539396 384c0-209.996088 170.27851804-380.27460604 380.27460604-380.27460604s380.27460604 170.27851804 380.27460604 380.27460604C892.27460604 593.996088 721.996088 764.27460604 512 764.27460604zM619.15293344 574.13730303l116.44853491-118.22314976L625.15282167 455.91415327 535.66153104 574.13730303 619.15293344 574.13730303zM512.92956015 566.86983278l83.40689693-110.95567951L431.88881632 455.91415327 512.92956015 566.86983278zM404.84706656 574.13730303l83.40689692 0L398.84717833 455.91415327 288.39853165 455.91415327 404.84706656 574.13730303zM283.83523637 430.56251287l112.22326152 0 98.36436477-283.00881237L283.83523637 430.56251287zM422.84673125 430.56251287l181.09521794 0-91.26590544-280.98068113L422.84673125 430.56251287zM532.70383966 149.49732627000003l95.9137062 281.0651866L740.16476363 430.56251287 532.70383966 149.49732627000003z"  horiz-adv-x="1024" />

    
    <glyph glyph-name="huafei" unicode="&#58954;" d="M473.52478153 595.0477752300001l84.61533126 0c3.11450211 0 5.63880804 3.15027187 5.63880804 7.03892838 0 3.88610179-2.52430519 7.03637368-5.63880805 7.03637366l-84.61533125 0c-3.11961228 0-5.64391749-3.15027187-5.64391748-7.03637366C467.88086406 598.1980471100001 470.4077247 595.0477752300001 473.52478153 595.0477752300001zM631.62857189 576.7491160100001l-231.59480417 0c-8.59234736 0-15.55462679-7.14112747-15.55462679-15.94298172l0-347.02301355c0-8.80440971 6.96227943-15.940427 15.55462679-15.940427l231.59480417 0c8.58723719 0 15.55207207 7.1360173 15.55207206 15.940427L647.18064395 560.80613429C647.18064395 569.60798854 640.22347471 576.7491160100001 631.62857189 576.7491160100001zM568.48772185 395.01700892l0-16.76823567-38.37301937 0 0-23.32172095 38.37301937 0 0-16.87298873-38.37301937 0 0-33.53391587-20.9583778 0 0 33.53391587L469.61313033 338.05406430999994l0 16.87298873 39.54830378 0 0 23.32172095L469.61313033 378.24877399l0 16.76823566 33.31418865 0-40.72869763 75.98210471 23.96812685 0 28.47763985-59.21897921c1.57641366-3.29335015 3.36744365-7.48604776 5.37564615-12.57553808l0.42923411 0c1.43844555 4.08283435 3.29335015 8.45437924 5.59026323 13.11463545l28.58494838 58.67988184 22.46069724 0-41.26268481-75.98210471L568.48772185 395.01700892zM512 759.18128328C304.79233719 759.18128328 136.81871672 591.20766281 136.81871672 384 136.81871672 176.79233719 304.79233719 8.818716719999998 512 8.818716719999998c207.20255337 0 375.18128328 167.97362047 375.18128328 375.18128328C887.18128328 591.20766281 719.20255337 759.18128328 512 759.18128328zM681.78253571 134.00689297999998c0-18.18879597-16.59705252-32.93605407-37.06998722-32.93605408L386.94979186 101.07083891000002c-20.47293469 0-37.06998721 14.74470337-37.06998723 32.93605407L349.87980463 609.02087893c0 18.18879597 16.59705252 32.93860878 37.06998723 32.93860878l257.76786607 0c20.47037998 0 37.0674325-14.7472581 37.06743248-32.93860878L681.78253571 134.00689297999998 681.78253571 134.00689297999998zM515.83244753 150.76490829m-30.50883706 0a8.93813593 8.93813593 0 1 1 61.01767485 0 8.93813593 8.93813593 0 1 1-61.01767485 0Z"  horiz-adv-x="1024" />

    
    <glyph glyph-name="gou" unicode="&#58961;" d="M1195.14985768 686.02414758c0 0-172.58522742-57.52840887-373.93465889-287.64204517-186.96732983-208.54048267-230.11363629-294.83309637-302.02414758-409.88991491C512-4.316761290000045 404.13423267 204.22372137000002 116.4921875 355.23579516999996l151.01207379 143.82102258c0 0 136.62997137-93.48366491 230.1136363-266.06889232 0 0 237.3046875 366.74360768 697.53196009 546.5198863L1195.14985768 686.02414758 1195.14985768 686.02414758zM1195.14985768 686.02414758"  horiz-adv-x="1397" />

    
    <glyph glyph-name="jinggao" unicode="&#58980;" d="M851.449 136.845l-65.311 114.899v240.138c0 50.069-18.19 102.862-51.219 148.645-33.6 46.575-80.773 83.020-132.823 102.623-0.306 0.115-0.611 0.223-0.916 0.322-1.198 0.384-5.63 1.8-12.146 3.671v8.004c0 43.327-35.25 78.573-78.573 78.573-43.331 0-78.578-35.249-78.578-78.573v-7.424c-6.073-1.736-9.917-2.964-10.358-3.11-0.228-0.071-0.456-0.155-0.684-0.232-52.843-19.141-100.823-55.546-135.098-102.515-33.646-46.111-52.174-99.378-52.174-149.981v-240.139l-69.889-123.003c-8.409-14.656-8.358-32.91 0.144-47.639 8.449-14.634 24.262-23.718 41.273-23.718h172.71c9.899-64.317 65.618-113.718 132.658-113.718 67.037 0 122.754 49.401 132.655 113.718h172.679c26.326 0 47.743 21.39 47.743 47.68 0 11.933-4.272 23.095-12.086 31.779v0 0zM510.457 792.707c20.068 0 36.511-15.824 37.507-35.648-4.21 0.794-8.47 1.525-12.711 2.142-1.815 0.263-3.635 0.274-5.401 0.066-0.73 0.109-1.472 0.218-2.23 0.332-5.24 0.794-11.178 1.691-17.803 1.691-6.613 0-12.551-0.898-17.793-1.685-0.639-0.099-1.27-0.196-1.898-0.283-1.836 0.248-3.717 0.248-5.603-0.015-3.863-0.543-7.736-1.176-11.553-1.867 1.189 19.642 17.54 35.268 37.485 35.268v0 0zM510.457-15.319c-44.347 0-81.535 31.146-90.906 72.704h181.815c-9.375-41.558-46.558-72.704-90.906-72.704v0 0zM815.791 98.396h-610.696c-2.406 0-4.61 1.234-5.754 3.214-1.218 2.111-1.251 4.685-0.048 6.792l72.612 127.789c1.753 3.086 2.676 6.579 2.676 10.13v245.56c0 88.766 68.692 180.607 159.853 213.79 2.992 0.948 26.571 8.269 50.345 12.176 1.415-0.15 2.861-0.166 4.313-0.010 3.198 0.322 6.174 0.773 9.051 1.203 4.366 0.659 8.133 1.229 11.674 1.229 3.546 0 7.315-0.57 11.686-1.229 2.873-0.429 5.841-0.881 9.040-1.203 1.314-0.135 2.619-0.141 3.904-0.027 24.673-4.131 49.857-12.018 53.656-13.227 89.549-33.951 157.012-125.304 157.012-212.707v-245.562c0-3.553 0.926-7.044 2.686-10.135l69.241-121.816c0.965-1.706 2.173-3.261 3.585-4.618 1.218-1.176 1.887-2.841 1.887-4.685-0.006-3.738-2.957-6.667-6.727-6.667v0 0zM815.791 98.396z"  horiz-adv-x="1024" />

    
    <glyph glyph-name="guanzhu" unicode="&#59419;" d="M521.3101774 571.01795851c0 0-96.9229562 118.77226148-188.57394627 99.52436174-91.67600359-19.22288621-146.51004246-97.86758423-142.79774258-197.6796014 3.71377127-99.85395159 79.21338763-178.57148307 127.89998736-226.85565948 75.95059532-75.3370285 160.93327659-137.33523232 199.50190952-136.20153154 34.99611446 1.04173933 130.00259399 59.63736944 206.96991513 138.99053845 49.89166259 51.38143811 102.8357097 130.90602329 109.24358367 226.6702652 6.43141611 95.7649776-31.5891266 188.78803253-149.46457998 197.48979297-82.35846928 6.0981478-162.77912685-101.93963732-162.77912685-101.93963733z"  horiz-adv-x="1024" />

    
    <glyph glyph-name="xiaoxi" unicode="&#58887;" d="M517.33248167 765.5397395699999c-208.53368991 0-377.58550537-169.05266712-377.58550535-377.58550537s169.05266712-377.58720867 377.58550535-377.58720869c208.53283825 0 377.58550537 169.05607374 377.58550537 377.58720869 0 208.53283825-169.05266712 377.58550537-377.58550537 377.58550537zM517.33248167 168.71609251999996c-28.93923712 0-52.38870606 23.45713384-52.38870606 52.38615109h104.77996709c0-28.93157222-23.4656504-52.38615109-52.39040937-52.38615109zM678.79519938 251.85806087000003h-322.92458375c-13.76615153 0-25.03014064 11.26654408-25.03014064 25.0326956s11.26228581 25.02843735 25.03014064 25.02843733c0 0 12.52954846 4.47970534 14.54115758 40.75424702v85.85619285c0 71.66847209 52.01057125 131.78083742 120.15574658 144.44579901v7.45368462c0 14.71745017 12.04495675 26.76496189 26.76496188 26.76496188 14.72767002 0 26.76496189-12.04495675 26.76496189-26.76496188v-7.45368461c68.13921375-12.66751656 120.14808168-72.77903023 120.14808169-144.44579902v-64.53586143l0.02214303 0.049396c0-0.12945156-0.01447814-0.25379319-0.02214303-0.3840964v-20.70799149c1.96647141-36.53344481 14.56244896-41.03018325 14.56244895-41.03018325 13.76615153-0.00936821 25.01481084-11.26739574 25.01481084-25.03014063 0-13.76785483-11.26228581-25.03354726-25.02673401-25.03354726z"  horiz-adv-x="1024" />

    
    <glyph glyph-name="shenqing" unicode="&#58977;" d="M792.81243489 762.13095703h-50.40878906c-11.95576172 0-25.27382812-7.30019531-25.27382812-17.775 0-10.80351562 13.46572266-23.12578125 25.27382812-23.12578125h50.40878906c32.47734375 0 55.16103516-22.68632812 55.16103516-55.16455078v-580.20996094c0-32.47734375-22.6828125-55.16455078-55.16103516-55.16455078h-542.67714843c-32.85351563 0-68.02734375 22.16337891-68.02734375 55.16455078v580.20908203c0 32.47734375 22.6828125 55.15664063 55.16103515 55.15664063h63.27158203c13.50878906 0 14.55908203 17.70732422 14.55908203 23.13457031 0 15.66474609-7.35996094 17.775-14.55908203 17.775h-63.27158203c-83.57871094 0-96.06181641-60.86162109-96.0618164-97.13759765v-573.77988282c0-62.55878906 38.86259766-101.41699219 101.42138671-101.41699218h544.82080079c66.35742188 0 101.42929687 35.06923828 101.42929687 101.41699218v573.77900391c0 59.00449219-37.71123047 97.13847656-96.06621094 97.13847656zM305.29104817 539.51279297c0-11.36865234 9.61259766-20.98212891 20.99091797-20.98212891h378.58798828c11.37832031 0 20.99091797 9.61259766 20.99091797 20.98212891 0 11.37832031-9.61259766 20.99091797-20.99091797 20.99091797h-378.58798828c-11.3765625 0-20.99091797-9.61259766-20.99091797-20.99091797zM703.7976888 421.08017578h-377.51572266c-11.37832031 0-20.99091797-9.61259766-20.99091797-20.99091797s9.61259766-20.99091797 20.99091797-20.99091797h378.58798828c11.37832031 0 20.99091797 9.61259766 20.99091797 20.99091797-0.85693359 11.81689453-10.34736328 20.99091797-22.06318359 20.99091797zM703.7976888 269.85820313h-377.51572266c-11.37832031 0-20.99091797-9.61259766-20.99091797-20.99091797 0-11.36865234 9.61259766-20.98212891 20.99091797-20.98212891h378.58798828c11.37832031 0 20.99091797 9.61259766 20.99091797 20.98212891-0.85693359 11.81601563-10.34736328 20.99091797-22.06318359 20.99091796zM428.16741536 713.13544922h175.89199219c14.91855469 0 28.00371094 16.09541016 28.00371094 34.44433594 0 18.6609375-13.31894531 34.43642578-29.08125 34.43642578h-174.81621094c-15.75791016 0-29.07158203-15.77460938-29.07158203-34.43642578 0-18.66884766 13.31542969-34.44433594 29.07158203-34.44433594z"  horiz-adv-x="1024" />

    
    <glyph glyph-name="fabu" unicode="&#58951;" d="M63.508 430.619l266.149-157.138 129.175-265.175 135.447 111.9 159.066-93.937 205.782 733.768-895.618-329.417zM457.356 224.287l-0.116-130.789-91.159 187.16 432.344 326.936-341.069-383.307zM146.17 423.172l679.898 250.046-483.777-365.836-196.121 115.79zM731.262 80.66l-231.89 136.931 394.755 443.758-162.864-580.688z"  horiz-adv-x="1024" />

    
    <glyph glyph-name="renzheng" unicode="&#59014;" d="M849.84189453 474.81738281v104.54238282l-90.74003906 52.39951171-52.14462891 90.48515625h-104.54238281l-90.74003906 52.39951172-90.48515625-52.39951172h-104.54238282l-52.39951171-90.48427734-90.74003907-52.39951172v-104.54238281l-52.1446289-90.48515625 52.39951172-90.48515625v-104.54238281l90.74003906-52.14462891 52.39951172-90.74003906h104.54238281l90.48515625-52.14462891 90.74003906 52.14462891h104.2875l52.14462891 90.74003906 90.74003906 52.14462891v104.54326171l52.14462891 90.48515625-52.14462891 90.48427735zM725.10664063 486.31962891h-31.69511719l-142.11738281-284.23212891h-78.98115235l-142.11738281 284.23212891h-31.69511719v31.69511718h94.83046875l118.59960938-236.94433593 118.08984375 236.94433593h95.08447265v-31.69511718z"  horiz-adv-x="1024" />

    
    <glyph glyph-name="dianshang" unicode="&#59015;" d="M890.68031464 456.13123168c-2.65435181 14.50982208-6.21280975 28.95475617-10.49022675 42.93595734-5.18152313 16.88212738-23.02918396 26.45959625-39.91131134 21.19155579-16.88126221-5.18152313-26.36442719-23.02918396-21.18896027-39.91131134 3.56105347-11.63917694 6.52340699-23.68585053 8.74344177-35.76799622 5.67467193-30.985318 6.76825103-62.87733765 3.21152344-94.77022246-15.38451233-138.8681076-126.03845215-255.95634155-263.12257232-278.45690461-104.41257935-17.06381378-206.54456176 15.38451233-280.31356659 89.12756195-73.73439789 73.77506104-106.21906127 175.94078521-89.08603364 280.32740936 22.40625915 136.83408509 134.52580261 244.74888611 272.60487214 262.44600678 110.49820862 14.29006805 218.24949188-28.11986389 288.58375854-113.06431274 11.26542206-13.5745697 31.39108429-15.50909729 44.99766541-4.24281006 13.60571594 11.26542206 15.48054657 31.42742157 4.24281006 45.00199127-84.43918762 101.91741943-213.66147766 152.56553192-345.9343689 135.71109008-165.9203476-21.28326416-300.60188141-151.00562439-327.56500854-315.49064941-20.50287781-124.94833375 18.47318115-247.37122651 106.96657104-335.87326813 73.02149506-73.02149506 169.13360138-112.34448853 270.7040863-112.34448852 21.52983856 0 43.31403809 1.77879639 65.15879975 5.33638916 167.4456482 27.45973663 297.50715637 165.01710663 316.29353027 334.46390076 4.24713592 38.07368316 2.93639831 76.24167023-3.89587554 113.37837066zM754.88876343 584.0791214000001h-195.35440979c-1.3141983 6.50177765-3.90885315 16.26871948-7.81597595 29.3008255-2.62147522 9.09729767-4.5759018 15.62676087-5.86241455 19.53561401l-60.55780792-5.86327972c2.59465484-5.22132111 5.86241455-13.67752533 9.77040252-25.39456787 2.59465484-7.81597595 4.54821625-13.67752533 5.86241455-17.58205262h-212.93732758v-41.0221939h308.6566452c-1.3141983-2.62580109-3.26862488-5.86241455-5.86241455-9.77040253-14.34630432-23.43927612-26.07026825-40.38110046-35.16237487-50.79173126h-83.99708404l13.67319945 1.95442657c-1.30900727 1.28218689-2.62147522 3.23488312-3.90885315 5.85895386-14.34630432 23.44360199-26.70617065 40.35687561-37.11334075 50.79519196l-48.84076539-9.77040253c7.81597595-13.03210601 18.8642395-29.3008255 33.20881348-48.83730469h-113.30310059v-316.47175598h50.79173127v201.2116333c1.28564759-2.62147522 3.90885315-6.53032836 7.81597595-11.71963806 7.81597595-11.72396392 13.00182495-19.53561402 15.62676086-23.44360199l37.11680146 23.44360199v-130.88861389h189.49199524v136.74756775l39.0720932-27.35158997 21.49004059 33.20881347v-123.07263793c2.59465484-18.2542923-7.81597595-26.67502441-31.25352173-25.39456787h-58.60770722c2.59465484-7.81597595 5.18930969-18.22141571 7.81597596-31.25352174 1.28218689-6.50177765 2.59465484-11.72396392 3.90885314-15.62676085 9.09383697 0 20.81434021 0.66877899 35.15891419 1.95442656h31.25352173c42.979216-1.28564759 63.79788209 19.53561402 62.51223449 62.5122345v246.14960175h-113.30396575c3.90885315 5.18930969 9.77040253 13.67319947 17.58205261 25.39456787 7.81251526 10.4106308 13.00269012 18.22141571 15.62676086 23.43927613l-48.83730468 11.72396392h156.28318176v41.0256546zM573.20841828 263.70197296000003h-101.57913667v60.55780793h101.57913667v-60.55780793zM676.7454422 441.47086945v-68.37291871c-41.69356842 27.3472641-76.85853881 50.11949157-105.48972016 68.37291871l-29.3008255-31.25352174c9.09729767-6.53032836 21.49004058-14.98739777 37.11680145-25.39456787 15.62676087-10.43918152 26.67935028-17.58205261 33.20881348-21.49004058h-175.81966094c11.71877289 6.50696869 27.98835755 18.22141571 48.83730469 35.16237487 6.50177765 5.18930969 11.72396392 9.09729767 15.62676085 11.72396394l-31.2543869 31.2543869c-35.16237488-28.6614624-69.68711701-52.74529266-103.53615875-72.28177185v72.27571563h310.61107178z"  horiz-adv-x="1024" />

    
    <glyph glyph-name="fabufill" unicode="&#58952;" d="M64 332.8l281.6-88 384 300.8-289.6-329.6 329.6-104 190.4 670.4zM424-14.4l121.6 145.6-121.6 35.2z"  horiz-adv-x="1024" />

    
    </font>
</defs>
</svg>
