<?xml version="1.0" encoding="UTF-8"?>
<svg width="200px" height="200px" viewBox="0 0 200 200" version="1.1" xmlns="http://www.w3.org/2000/svg" xmlns:xlink="http://www.w3.org/1999/xlink">
    <!-- Generator: Sketch 52.6 (67491) - http://www.bohemiancoding.com/sketch -->
    <title>avatar</title>
    <desc>Created with Sketch.</desc>
    <g id="Page-1" stroke="none" stroke-width="1" fill="none" fill-rule="evenodd">
        <g id="avatar">
            <polygon id="路径" fill="#EEEEEE" points="5.00000001e-05 199.90005 199.9001 199.90005 199.9001 2.84217094e-14 5.00000001e-05 2.84217094e-14"/>
            <path d="M153.5,199.90005 C152,192 145,183.5 141,179 C128,167 114.942579,163.518241 111.844128,163.518241 L111.844128,163.818091 C111.844128,170.214893 106.746677,175.312344 100.349875,175.312344 C93.9530734,175.312344 88.8556221,170.214892 88.8556223,163.818091 L88.8556223,163.118441 C83.1584709,163.818091 75.6622189,165.517241 68.265917,170.214893 C64.8676162,172.213893 62.8686156,173.913044 59.7701648,177.011494 C59.7701648,177.011494 48.5,189.5 47,199.90005 C47,200 82.6587207,199.90005 99.950075,199.90005 C117.441329,199.90005 139,199.90005 153.5,199.90005 Z" id="路径" fill="#75D557"/>
            <path d="M111.944078,163.818091 C111.944078,170.114943 106.846627,175.312344 100.449825,175.312344 L99.950075,175.312344 C93.6532234,175.312344 88.4558221,170.214892 88.4558221,163.818091 C88.4558221,157.42129 93.5532734,152.323838 99.950075,152.323838 L100.449825,152.323838 C106.746677,152.423788 111.944078,157.521239 111.944078,163.818091 Z" id="路径" fill="#F2D1AD"/>
            <path d="M168.915592,106.046977 C168.615742,100.849575 166.017041,96.3518242 161.51929,93.4532734 C159.72019,92.253873 157.621239,91.4542729 155.522289,91.0544729 C153.023538,80.5597201 148.026037,72.6636682 139.030535,72.6636682 L133.733183,72.8635682 C114.942579,70.6646676 106.246927,85.5572213 82.7586707,75.1624188 C71.3643678,70.0649674 51.2744129,72.163918 43.5782609,91.2543729 C41.6792105,91.654173 39.88011,92.4537732 38.2809096,93.5532234 C33.7831584,96.4517742 31.1844578,100.949525 30.8846076,106.146927 C30.5847576,110.644678 32.483808,115.142429 35.682209,118.340829 C37.5812594,120.03998 39.78016,121.43928 42.2789105,122.438781 C43.1784607,127.236382 44.4778111,131.934033 46.3768615,135.732134 C52.5737631,147.426287 67.6662168,164.917541 100.549775,164.917541 C132.433833,164.917541 149.725188,148.525737 153.823138,137.231384 C155.022539,133.833084 156.121989,128.735632 156.721689,122.838581 C159.52029,121.83908 162.01904,120.33983 164.117991,118.44078 C167.316392,115.042479 169.215442,110.544728 168.915592,106.046977 Z" id="路径" fill="#FFDFB9"/>
            <path d="M84.5577711,33.4832584 C84.5577711,33.4832584 98.9505746,27.5862068 101.849125,28.6856572 C101.849125,28.6856572 99.6502248,29.9850076 99.950075,35.0824588 C99.950075,35.0824588 171.614243,30.3848076 156.421839,94.8525736 C156.421839,94.8525736 141.429335,96.8515742 123.838131,75.8620689 C123.838131,75.8620689 111.944078,87.9560219 92.253923,88.4557721 C92.253923,88.4557721 66.2669166,86.6566717 50.5747627,90.5547227 C50.5747627,90.5547227 42.1789605,93.2533732 42.1789605,95.752124 C42.1789605,95.752124 33.7831584,48.0759621 68.6657172,38.4807596 C68.6657172,38.4807596 67.666217,36.481759 63.968066,34.2828586 C63.968066,34.1829086 71.964068,30.8845578 84.5577711,33.4832584 Z" id="路径" fill="#784915"/>
            <path d="M81.5592703,114.842579 C81.5592703,118.140929 79.1604697,120.83958 76.1619689,120.83958 C73.1634682,120.83958 70.7646676,118.24088 70.7646676,114.842579 C70.7646676,111.544228 73.1634682,108.845577 76.1619689,108.845577 C79.0605197,108.945527 81.5592703,111.544228 81.5592703,114.842579 Z" id="路径" fill="#3B2519"/>
            <path d="M75.2624187,112.243878 C75.2624187,113.143428 74.4628186,113.943029 73.5632684,113.943029 C72.6637182,113.943029 71.864118,113.143428 71.864118,112.243878 C71.864118,111.344328 72.6637182,110.544728 73.5632684,110.544728 C74.6627186,110.544728 75.2624187,111.344328 75.2624187,112.243878 Z" id="路径" fill="#FFFFFF"/>
            <path d="M83.3583709,102.948526 C85.4573215,103.548226 86.6567217,97.9510246 74.5627686,97.9510244 C64.068016,97.9510244 62.2689154,102.048975 64.068016,102.548726 C67.1664668,103.448276 72.163968,97.9510244 83.3583709,102.948526 Z" id="路径" fill="#51362A"/>
            <path d="M131.234433,114.842579 C131.234433,118.140929 128.835632,120.83958 125.837131,120.83958 C122.838631,120.83958 120.43983,118.24088 120.43983,114.842579 C120.43983,111.544228 122.838631,108.845577 125.837131,108.845577 C128.735682,108.945527 131.234433,111.544228 131.234433,114.842579 Z" id="路径" fill="#3B2519"/>
            <path d="M125.037531,112.243878 C125.037531,113.143428 124.237931,113.943029 123.338381,113.943029 C122.438831,113.943029 121.63923,113.143428 121.63923,112.243878 C121.63923,111.344328 122.438831,110.544728 123.338381,110.544728 C124.237931,110.544727 125.037531,111.344328 125.037531,112.243878 Z" id="路径" fill="#FFFFFF"/>
            <path d="M117.841129,102.948526 C115.742179,103.548226 114.542779,97.9510246 126.636732,97.9510244 C137.131484,97.9510244 138.930585,102.048975 137.131484,102.548726 C134.033033,103.448276 129.435332,97.9510244 117.841129,102.948526 Z" id="路径" fill="#51362A"/>
            <path d="M86.8566217,146.226887 C86.8566217,147.126437 89.2554223,150.524738 100.549775,150.524738 C111.744178,150.524738 114.242929,147.126437 114.242929,146.226887 C114.242928,145.327336 109.145477,148.825587 100.549775,148.825587 C92.054023,148.825587 86.8566217,145.427286 86.8566217,146.226887 Z" id="路径" fill="#F8945E"/>
        </g>
    </g>
</svg>