<?xml version="1.0" encoding="UTF-8"?>
<svg width="25px" height="25px" viewBox="0 0 25 25" version="1.1" xmlns="http://www.w3.org/2000/svg" xmlns:xlink="http://www.w3.org/1999/xlink">
    <!-- Generator: Sketch 52.4 (67378) - http://www.bohemiancoding.com/sketch -->
    <title>alipay</title>
    <desc>Created with Sketch.</desc>
    <g id="Page-1" stroke="none" stroke-width="1" fill="none" fill-rule="evenodd">
        <g id="alipay" fill="#FFFFFF" fill-rule="nonzero">
            <path d="M5.62510869,14.0755978 C5.33,14.3130978 5.01369565,14.659837 4.92184783,15.1005978 C4.79684783,15.7027717 4.89576086,16.4565761 5.47673914,17.0478804 C6.18054348,17.7647283 7.25010869,17.9609239 7.71206521,17.9946196 C8.96695652,18.0853804 10.3044565,17.4630978 11.3126087,16.7533152 C11.7077174,16.4745109 12.3843478,15.9147283 13.031087,15.0511413 C11.5816304,14.3027717 9.77239131,13.4750543 7.83815217,13.5560326 C6.85010869,13.597337 6.1425,13.8022283 5.62510869,14.0755978 Z M24.0054348,17.3847826 C24.6451087,15.8831522 25,14.2326087 25,12.5 C25,5.60760869 19.3929348,0 12.5,0 C5.60706521,0 0,5.60760869 0,12.5 C0,19.3929348 5.60706521,25 12.5,25 C16.6597826,25 20.348913,22.9559783 22.6228261,19.8211957 C20.4744565,18.7532609 16.9336957,16.9956522 14.7527174,15.9320652 C13.7119565,17.1184783 12.1733696,18.3076087 10.4353261,18.825 C9.34347827,19.1494565 8.35923914,19.2733696 7.32989131,19.0630435 C6.31086956,18.8543478 5.5603261,18.3771739 5.1228261,17.898913 C4.9,17.6548913 4.64402173,17.3445652 4.45869565,16.9755435 C4.47608696,17.0222826 4.48804348,17.05 4.48804348,17.05 C4.48804348,17.05 4.38152173,16.8663043 4.3,16.573913 C4.25815217,16.4326087 4.22989131,16.2853261 4.21847827,16.1309783 C4.20978262,16.0298913 4.20760869,15.9233696 4.21358696,15.8125 C4.20434783,15.6244565 4.21195652,15.4271739 4.25434783,15.225 C4.35652173,14.7309783 4.56739131,14.1554348 5.11304348,13.6211957 C6.31086956,12.4483696 7.91521738,12.3853261 8.74619565,12.3902174 C9.9771739,12.3972826 12.1163043,12.9358696 13.9173913,13.5728261 C14.4163043,12.5103261 14.736413,11.373913 14.9429348,10.6163043 L7.45380435,10.6163043 L7.45380435,9.80652173 L11.2994565,9.80652173 L11.2994565,8.18695652 L6.64402173,8.18695652 L6.64402173,7.3771739 L11.2994565,7.3771739 L11.2994565,5.75815217 C11.2994565,5.53586956 11.3434783,5.35326086 11.7043478,5.35326086 L13.526087,5.35326086 L13.526087,7.3771739 L18.5869565,7.3771739 L18.5869565,8.18695652 L13.526087,8.18695652 L13.526087,9.80652173 L17.5744565,9.80652173 C17.5744565,9.80652173 17.1679348,12.0728261 15.8967391,14.3065217 C18.7179348,15.3141304 22.6869565,16.8663043 24.0054348,17.3847826 Z" id="形状"/>
        </g>
    </g>
</svg>